<svg width="62" height="62" viewBox="0 0 62 62" fill="none" xmlns="http://www.w3.org/2000/svg">
<path d="M36.3498 30.7301C37.3369 30.7301 38.1371 29.9293 38.1371 28.9415C38.1371 27.9536 37.3369 27.1528 36.3498 27.1528C35.3627 27.1528 34.5625 27.9536 34.5625 28.9415C34.5625 29.9293 35.3627 30.7301 36.3498 30.7301Z" fill="url(#paint0_linear_1032_190)"/>
<path d="M30.6975 27.1528C31.6849 27.1528 32.4848 27.9541 32.4848 28.9415C32.4848 29.9296 31.6841 30.7301 30.6975 30.7301C29.7101 30.7301 28.9102 29.9289 28.9102 28.9415C28.9094 27.9534 29.7101 27.1528 30.6975 27.1528Z" fill="url(#paint1_linear_1032_190)"/>
<path d="M25.0451 30.7301C26.0322 30.7301 26.8325 29.9293 26.8325 28.9415C26.8325 27.9536 26.0322 27.1528 25.0451 27.1528C24.058 27.1528 23.2578 27.9536 23.2578 28.9415C23.2578 29.9293 24.058 30.7301 25.0451 30.7301Z" fill="url(#paint2_linear_1032_190)"/>
<path d="M16.3131 19.3486C16.3002 19.3942 16.2858 19.3988 16.2812 19.3486H16.3131Z" fill="url(#paint3_linear_1032_190)"/>
<path d="M49.4856 22.98V34.7616C49.4856 38.5751 46.3959 41.6671 42.5852 41.6671H39.9813L35.9695 46.0001L31.9577 41.6671H19.7697C15.959 41.6671 12.8701 38.5759 12.8701 34.7623L12.8633 18.8991C12.8633 17.8966 13.7156 17.0375 14.7561 17.257C15.5037 17.415 16.0835 18.2535 16.0835 19.0184V34.7547C16.0835 36.7963 17.7372 38.4505 19.7773 38.4505H33.3617L35.9695 41.2676L38.5772 38.4505H42.586C44.6215 38.4505 46.2714 36.7994 46.2714 34.7623V22.98C46.2714 20.943 44.6215 19.2918 42.5852 19.2918L16.3135 19.3487C16.3476 19.2295 16.3689 18.8254 16.1662 18.3667C15.7382 17.1864 14.6202 16.6396 12.8701 15.9233L42.586 16.0752C46.3967 16.0752 49.4856 19.1665 49.4856 22.98Z" fill="url(#paint4_linear_1032_190)"/>
<defs>
<linearGradient id="paint0_linear_1032_190" x1="36.3498" y1="27.1528" x2="36.3498" y2="30.7301" gradientUnits="userSpaceOnUse">
<stop stop-color="#5550FF"/>
<stop offset="1" stop-color="#3C4984"/>
</linearGradient>
<linearGradient id="paint1_linear_1032_190" x1="30.6975" y1="27.1528" x2="30.6975" y2="30.7301" gradientUnits="userSpaceOnUse">
<stop stop-color="#5550FF"/>
<stop offset="1" stop-color="#3C4984"/>
</linearGradient>
<linearGradient id="paint2_linear_1032_190" x1="25.0451" y1="27.1528" x2="25.0451" y2="30.7301" gradientUnits="userSpaceOnUse">
<stop stop-color="#5550FF"/>
<stop offset="1" stop-color="#3C4984"/>
</linearGradient>
<linearGradient id="paint3_linear_1032_190" x1="16.2972" y1="19.3486" x2="16.2972" y2="19.3845" gradientUnits="userSpaceOnUse">
<stop stop-color="#5550FF"/>
<stop offset="1" stop-color="#3C4984"/>
</linearGradient>
<linearGradient id="paint4_linear_1032_190" x1="31.1744" y1="15.9233" x2="31.1744" y2="46.0001" gradientUnits="userSpaceOnUse">
<stop stop-color="#5550FF"/>
<stop offset="1" stop-color="#3C4984"/>
</linearGradient>
</defs>
</svg>
