<svg width="42" height="42" viewBox="0 0 42 42" fill="none" xmlns="http://www.w3.org/2000/svg">
<rect width="42" height="42" rx="5" fill="url(#paint0_linear_847_180)"/>
<path d="M7.79412 14.9412C8.00473 14.9412 8.20672 14.8575 8.35564 14.7086C8.50457 14.5597 8.58824 14.3577 8.58824 14.1471V10.9706C8.58824 10.3387 8.83923 9.73279 9.28601 9.28601C9.73279 8.83923 10.3387 8.58824 10.9706 8.58824H14.1471C14.3577 8.58824 14.5597 8.50457 14.7086 8.35564C14.8575 8.20672 14.9412 8.00473 14.9412 7.79412C14.9412 7.5835 14.8575 7.38152 14.7086 7.23259C14.5597 7.08367 14.3577 7 14.1471 7H10.9706C9.91752 7 8.90759 7.41833 8.16296 8.16296C7.41833 8.90759 7 9.91752 7 10.9706V14.1471C7 14.3577 7.08367 14.5597 7.23259 14.7086C7.38152 14.8575 7.5835 14.9412 7.79412 14.9412Z" fill="white"/>
<path d="M33.2057 26.0588C32.995 26.0588 32.7931 26.1425 32.6441 26.2914C32.4952 26.4404 32.4115 26.6423 32.4115 26.853V30.0294C32.4115 30.6613 32.1605 31.2672 31.7138 31.714C31.267 32.1608 30.661 32.4118 30.0292 32.4118H26.8527C26.6421 32.4118 26.4401 32.4954 26.2912 32.6444C26.1423 32.7933 26.0586 32.9953 26.0586 33.2059C26.0586 33.4165 26.1423 33.6185 26.2912 33.7674C26.4401 33.9163 26.6421 34 26.8527 34H30.0292C31.0822 34 32.0922 33.5817 32.8368 32.8371C33.5814 32.0924 33.9998 31.0825 33.9998 30.0294V26.853C33.9998 26.6423 33.9161 26.4404 33.7672 26.2914C33.6183 26.1425 33.4163 26.0588 33.2057 26.0588Z" fill="white"/>
<path d="M30.0292 7H26.8527C26.6421 7 26.4401 7.08367 26.2912 7.23259C26.1423 7.38152 26.0586 7.5835 26.0586 7.79412C26.0586 8.00473 26.1423 8.20672 26.2912 8.35564C26.4401 8.50457 26.6421 8.58824 26.8527 8.58824H30.0292C30.661 8.58824 31.267 8.83923 31.7138 9.28601C32.1605 9.73279 32.4115 10.3387 32.4115 10.9706V14.1471C32.4115 14.3577 32.4952 14.5597 32.6441 14.7086C32.7931 14.8575 32.995 14.9412 33.2057 14.9412C33.4163 14.9412 33.6183 14.8575 33.7672 14.7086C33.9161 14.5597 33.9998 14.3577 33.9998 14.1471V10.9706C33.9998 9.91752 33.5814 8.90759 32.8368 8.16296C32.0922 7.41833 31.0822 7 30.0292 7Z" fill="white"/>
<path d="M14.1471 34C14.3577 34 14.5597 33.9163 14.7086 33.7674C14.8575 33.6185 14.9412 33.4165 14.9412 33.2059C14.9412 32.9953 14.8575 32.7933 14.7086 32.6444C14.5597 32.4954 14.3577 32.4118 14.1471 32.4118H10.9706C10.3387 32.4118 9.73279 32.1608 9.28601 31.714C8.83923 31.2672 8.58824 30.6613 8.58824 30.0294V26.853C8.58824 26.6423 8.50457 26.4404 8.35564 26.2914C8.20672 26.1425 8.00473 26.0588 7.79412 26.0588C7.5835 26.0588 7.38152 26.1425 7.23259 26.2914C7.08367 26.4404 7 26.6423 7 26.853V30.0294C7 31.0825 7.41833 32.0924 8.16296 32.8371C8.90759 33.5817 9.91752 34 10.9706 34H14.1471Z" fill="white"/>
<path d="M20.4992 8.58824C20.9378 8.58824 21.2933 8.2327 21.2933 7.79412C21.2933 7.35554 20.9378 7 20.4992 7C20.0606 7 19.7051 7.35554 19.7051 7.79412C19.7051 8.2327 20.0606 8.58824 20.4992 8.58824Z" fill="white"/>
<path d="M23.6769 8.58824C24.1155 8.58824 24.471 8.2327 24.471 7.79412C24.471 7.35554 24.1155 7 23.6769 7C23.2384 7 22.8828 7.35554 22.8828 7.79412C22.8828 8.2327 23.2384 8.58824 23.6769 8.58824Z" fill="white"/>
<path d="M17.3234 8.58824C17.762 8.58824 18.1175 8.2327 18.1175 7.79412C18.1175 7.35554 17.762 7 17.3234 7C16.8848 7 16.5293 7.35554 16.5293 7.79412C16.5293 8.2327 16.8848 8.58824 17.3234 8.58824Z" fill="white"/>
<path d="M20.4992 34.0001C20.9378 34.0001 21.2933 33.6446 21.2933 33.206C21.2933 32.7674 20.9378 32.4119 20.4992 32.4119C20.0606 32.4119 19.7051 32.7674 19.7051 33.206C19.7051 33.6446 20.0606 34.0001 20.4992 34.0001Z" fill="white"/>
<path d="M23.6769 34.0001C24.1155 34.0001 24.471 33.6446 24.471 33.206C24.471 32.7674 24.1155 32.4119 23.6769 32.4119C23.2384 32.4119 22.8828 32.7674 22.8828 33.206C22.8828 33.6446 23.2384 34.0001 23.6769 34.0001Z" fill="white"/>
<path d="M17.3234 34.0001C17.762 34.0001 18.1175 33.6446 18.1175 33.206C18.1175 32.7674 17.762 32.4119 17.3234 32.4119C16.8848 32.4119 16.5293 32.7674 16.5293 33.206C16.5293 33.6446 16.8848 34.0001 17.3234 34.0001Z" fill="white"/>
<path d="M33.2062 21.294C33.6448 21.294 34.0003 20.9385 34.0003 20.4999C34.0003 20.0613 33.6448 19.7058 33.2062 19.7058C32.7676 19.7058 32.4121 20.0613 32.4121 20.4999C32.4121 20.9385 32.7676 21.294 33.2062 21.294Z" fill="white"/>
<path d="M33.2062 24.4706C33.6448 24.4706 34.0003 24.115 34.0003 23.6764C34.0003 23.2379 33.6448 22.8823 33.2062 22.8823C32.7676 22.8823 32.4121 23.2379 32.4121 23.6764C32.4121 24.115 32.7676 24.4706 33.2062 24.4706Z" fill="white"/>
<path d="M33.2062 18.1175C33.6448 18.1175 34.0003 17.762 34.0003 17.3234C34.0003 16.8848 33.6448 16.5293 33.2062 16.5293C32.7676 16.5293 32.4121 16.8848 32.4121 17.3234C32.4121 17.762 32.7676 18.1175 33.2062 18.1175Z" fill="white"/>
<path d="M7.79412 21.294C8.2327 21.294 8.58824 20.9385 8.58824 20.4999C8.58824 20.0613 8.2327 19.7058 7.79412 19.7058C7.35554 19.7058 7 20.0613 7 20.4999C7 20.9385 7.35554 21.294 7.79412 21.294Z" fill="white"/>
<path d="M7.79412 24.4706C8.2327 24.4706 8.58824 24.115 8.58824 23.6764C8.58824 23.2379 8.2327 22.8823 7.79412 22.8823C7.35554 22.8823 7 23.2379 7 23.6764C7 24.115 7.35554 24.4706 7.79412 24.4706Z" fill="white"/>
<path d="M7.79412 18.1175C8.2327 18.1175 8.58824 17.762 8.58824 17.3234C8.58824 16.8848 8.2327 16.5293 7.79412 16.5293C7.35554 16.5293 7 16.8848 7 17.3234C7 17.762 7.35554 18.1175 7.79412 18.1175Z" fill="white"/>
<path d="M11.7656 14.147V26.8529C11.7656 27.4847 12.0166 28.0907 12.4634 28.5375C12.9102 28.9842 13.5161 29.2352 14.148 29.2352H26.8539C27.4857 29.2352 28.0917 28.9842 28.5384 28.5375C28.9852 28.0907 29.2362 27.4847 29.2362 26.8529V14.147C29.2362 13.5152 28.9852 12.9092 28.5384 12.4624C28.0917 12.0156 27.4857 11.7646 26.8539 11.7646H14.148C13.5161 11.7646 12.9102 12.0156 12.4634 12.4624C12.0166 12.9092 11.7656 13.5152 11.7656 14.147ZM14.4116 26.6258C14.6715 25.7741 15.1076 24.9866 15.6915 24.3144C16.2754 23.6421 16.9941 23.1001 17.8009 22.7235C17.0871 22.1621 16.566 21.3921 16.3102 20.5208C16.0543 19.6494 16.0765 18.72 16.3735 17.8618C16.6705 17.0036 17.2277 16.2593 17.9675 15.7325C18.7072 15.2058 19.5928 14.9227 20.5009 14.9227C21.4091 14.9227 22.2946 15.2058 23.0344 15.7325C23.7741 16.2593 24.3313 17.0036 24.6283 17.8618C24.9254 18.72 24.9475 19.6494 24.6917 20.5208C24.4358 21.3921 23.9148 22.1621 23.2009 22.7235C24.0084 23.1015 24.7275 23.6449 25.3116 24.3185C25.8957 24.9921 26.3319 25.7809 26.5918 26.6337C26.652 26.8357 26.6296 27.0533 26.5293 27.2387C26.4291 27.4241 26.2593 27.5622 26.0574 27.6224C25.8554 27.6826 25.6377 27.6602 25.4523 27.5599C25.2669 27.4597 25.1289 27.2899 25.0687 27.0879C24.7764 26.1033 24.1739 25.2395 23.3507 24.6251C22.5276 24.0108 21.528 23.6789 20.5009 23.6789C19.4738 23.6789 18.4742 24.0108 17.6511 24.6251C16.828 25.2395 16.2254 26.1033 15.9332 27.0879C15.8696 27.2857 15.731 27.4507 15.5472 27.5475C15.3634 27.6443 15.149 27.6652 14.95 27.6058C14.7509 27.5464 14.5831 27.4113 14.4825 27.2296C14.3818 27.0479 14.3564 26.834 14.4116 26.6337V26.6258Z" fill="white"/>
<path d="M20.5001 22.0881C22.0351 22.0881 23.2795 20.8437 23.2795 19.3087C23.2795 17.7737 22.0351 16.5293 20.5001 16.5293C18.9651 16.5293 17.7207 17.7737 17.7207 19.3087C17.7207 20.8437 18.9651 22.0881 20.5001 22.0881Z" fill="white"/>
<defs>
<linearGradient id="paint0_linear_847_180" x1="21" y1="0" x2="21" y2="42" gradientUnits="userSpaceOnUse">
<stop stop-color="#5550FF"/>
<stop offset="1" stop-color="#3C4984"/>
</linearGradient>
</defs>
</svg>
