<svg xmlns="http://www.w3.org/2000/svg" fill="currentColor" viewBox="0 0 24 24" aria-hidden="true" name="user_id_card" width="24" class="w-10 h-10 shrink-0 radius p-2 color-white mr-3 bg-ai-light"><path fill-rule="evenodd" d="M4 4a3 3 0 0 0-3 3v10a3 3 0 0 0 3 3h16a3 3 0 0 0 3-3V7a3 3 0 0 0-3-3H4Zm6 6a2 2 0 1 1-4 0 2 2 0 0 1 4 0Zm-2 3.5c-2.055 0-3.748 1.356-3.974 3.1-.029.22.153.4.374.4h7.2c.22 0 .403-.18.374-.4-.226-1.744-1.92-3.1-3.974-3.1ZM14 9a1 1 0 1 0 0 2h5a1 1 0 1 0 0-2h-5Zm1 4a1 1 0 1 0 0 2h2a1 1 0 1 0 0-2h-2Z" clip-rule="evenodd"></path></svg>