<svg viewBox="0 0 585 437" fill="none" xmlns="http://www.w3.org/2000/svg"><g clip-path="url(#clip0_101_42)"><path d="M25.15 108.27C25.15 108.27 -2.37 155.92 56.81 176.5" stroke="white" stroke-width="2" stroke-miterlimit="10" stroke-dasharray="8 8"></path><path d="M440.75 422.38C440.75 422.38 398.43 457.74 350.11 414.26C301.79 370.78 332.11 211.85 332.11 211.85" stroke="#0773EE" stroke-width="2" stroke-miterlimit="10" stroke-dasharray="8 8"></path><path d="M337.34 196.35C288.86 186.42 297.46 111.35 294.98 75.28C293.11 48.15 272.08 27.77 244.25 28.77C217.74 29.77 201.49 50.32 195.9 75.27C190.78 98.11 194.79 121.88 194.9 144.94C195.06 170.69 195.19 196.31 191.9 221.94C187.12 259.62 175.58 297.18 152.96 327.7C149.36 332.56 144.75 337.63 138.7 337.93" stroke="white" stroke-width="2" stroke-miterlimit="10" stroke-dasharray="8 8"></path><path fill-rule="evenodd" clip-rule="evenodd" d="M502.22 106.16H145.5C131.279 106.16 119.75 117.689 119.75 131.91V133.35C119.75 147.552 131.248 159.069 145.443 159.1H72.75C58.5287 159.1 47 170.629 47 184.85V186.29C47 200.511 58.5287 212.04 72.75 212.04H451.88C466.101 212.04 477.63 200.511 477.63 186.29V184.85C477.63 170.648 466.132 159.131 451.937 159.1H502.22C516.441 159.1 527.97 147.571 527.97 133.35V131.91C527.97 117.689 516.441 106.16 502.22 106.16ZM72.75 264.32H104.892C93.473 261.683 84.96 251.45 84.96 239.23V237.79C84.96 223.569 96.4887 212.04 110.71 212.04H519.25C533.471 212.04 545 223.569 545 237.79V239.23C545 253.451 533.471 264.98 519.25 264.98H457.698C469.117 267.617 477.63 277.85 477.63 290.07V291.51C477.63 305.712 466.132 317.229 451.937 317.26H482.64C496.861 317.26 508.39 328.789 508.39 343.01V344.45C508.39 358.671 496.861 370.2 482.64 370.2H103.51C89.2887 370.2 77.76 358.671 77.76 344.45V343.01C77.76 328.808 89.2581 317.291 103.453 317.26H72.75C58.5287 317.26 47 305.731 47 291.51V290.07C47 275.849 58.5287 264.32 72.75 264.32Z" fill="#78BFFF"></path><path fill-rule="evenodd" clip-rule="evenodd" d="M561.65 155.79C574.502 155.79 584.92 145.372 584.92 132.52C584.92 119.668 574.502 109.25 561.65 109.25C548.798 109.25 538.38 119.668 538.38 132.52C538.38 145.372 548.798 155.79 561.65 155.79ZM556.13 370.24C568.982 370.24 579.4 359.822 579.4 346.97C579.4 334.118 568.982 323.7 556.13 323.7C543.278 323.7 532.86 334.118 532.86 346.97C532.86 359.822 543.278 370.24 556.13 370.24ZM46.54 238.47C46.54 251.322 36.1217 261.74 23.27 261.74C10.4183 261.74 0 251.322 0 238.47C0 225.618 10.4183 215.2 23.27 215.2C36.1217 215.2 46.54 225.618 46.54 238.47Z" fill="#499FFF"></path><path style="mix-blend-mode:multiply" opacity="0.5" d="M451.88 159.1H72.75C58.5287 159.1 47 170.629 47 184.85V186.29C47 200.511 58.5287 212.04 72.75 212.04H451.88C466.101 212.04 477.63 200.511 477.63 186.29V184.85C477.63 170.629 466.101 159.1 451.88 159.1Z" fill="url(#paint0_linear_101_42)"></path><path style="mix-blend-mode:multiply" opacity="0.5" d="M451.88 264.1H72.75C58.5287 264.1 47 275.629 47 289.85V291.29C47 305.511 58.5287 317.04 72.75 317.04H451.88C466.101 317.04 477.63 305.511 477.63 291.29V289.85C477.63 275.629 466.101 264.1 451.88 264.1Z" fill="url(#paint1_linear_101_42)"></path><path d="M299.71 360.34C377.488 360.34 440.54 307.026 440.54 241.26C440.54 175.494 377.488 122.18 299.71 122.18C221.932 122.18 158.88 175.494 158.88 241.26C158.88 307.026 221.932 360.34 299.71 360.34Z" fill="#0773EE"></path><path fill-rule="evenodd" clip-rule="evenodd" d="M161.66 155.15C145.17 149.61 168.96 199.08 179.32 215.28L212.74 170.15C210.977 171.512 194.833 165.99 186.009 162.972C183.173 162.002 181.093 161.291 180.49 161.15C174.55 159.653 168.874 157.67 163.092 155.65C162.615 155.483 162.138 155.317 161.66 155.15ZM437.92 155.73C454.41 150.18 430.62 199.8 420.26 216L386.84 170.73C388.603 172.092 404.747 166.57 413.571 163.552C416.407 162.582 418.487 161.871 419.09 161.73C425.03 160.233 430.706 158.25 436.488 156.23C436.965 156.063 437.442 155.897 437.92 155.73Z" fill="#EE9421"></path><path fill-rule="evenodd" clip-rule="evenodd" d="M169.39 165.22C156.7 160.99 174.94 198.94 182.82 211.34L208.5 176.6C207.073 177.589 194.833 173.427 188.099 171.138C185.912 170.394 184.306 169.848 183.84 169.74C179.958 168.832 176.253 167.563 172.516 166.282C171.478 165.926 170.437 165.57 169.39 165.22ZM430.04 165.34C442.73 160.99 424.49 198.94 416.61 211.34L390.93 176.72C392.362 177.826 404.692 173.57 411.409 171.251C413.556 170.51 415.13 169.967 415.59 169.86C419.472 168.952 423.177 167.683 426.914 166.402C427.952 166.046 428.993 165.69 430.04 165.34Z" fill="#DE6930"></path><path fill-rule="evenodd" clip-rule="evenodd" d="M320.59 135.89C320.59 135.89 324.67 137.06 330.22 138.52C359.204 144.853 384.106 159.955 400.821 180.333C402.449 180.354 404.163 180.22 405.572 180.109L405.573 180.109L405.573 180.109C406.214 180.059 406.792 180.013 407.27 179.99C410.33 179.84 411.79 180.99 408.73 183.49L408.667 183.541C405.65 186.006 404.258 187.143 411.21 187.58C418.21 188.02 420.21 189.04 420.21 189.04C420.21 189.04 428.53 190.35 418.21 192.69C415.39 193.329 412.814 193.902 410.488 194.279C410.509 194.316 410.53 194.353 410.551 194.39H414C413.634 194.906 413.3 195.443 413 196C419.739 207.993 423.292 221.513 423.32 235.27V279.64C425.266 282.695 427.052 285.849 428.67 289.09C407.23 331.12 357.31 360.45 299.67 360.45C242.03 360.45 192.41 331.26 170.81 289.38C172.31 286.46 174.06 283.54 175.81 280.62V231C176.524 219.216 179.792 207.741 185.369 197.366C185.152 197.026 184.943 196.702 184.748 196.402L184.748 196.401L184.748 196.401C184.524 196.057 184.321 195.743 184.15 195.47C182.69 193.14 183.15 191.53 186.34 192.84L186.384 192.858L186.384 192.858C187.89 193.476 189.042 193.95 189.532 193.667L189.617 193.522C189.672 193.429 189.726 193.337 189.781 193.244C189.862 192.629 189.438 191.391 188.34 189.19C185.52 183.54 185.57 181.46 185.57 181.46C185.57 181.46 183.09 174.16 189.22 181.46L189.667 181.992C191.193 183.808 192.589 185.469 193.768 187.023C208.982 165.069 233.204 148.252 262.07 140.26C269.51 137.93 278.27 135.74 278.27 135.74C279.88 129.56 286.45 115.45 288.78 120.56C289.65 122.61 290.55 124.5 291.55 126.4C291.609 126.517 291.769 126.87 291.999 127.373C292.905 129.36 294.885 133.705 295.93 135.3H297.39C298.711 133.271 300.731 128.705 301.989 125.864L301.989 125.864L301.99 125.863L301.99 125.862C302.541 124.616 302.946 123.703 303.08 123.48C304.471 121.038 305.69 118.501 306.73 115.89C309.79 109.04 318.59 127.89 320.59 135.89Z" fill="#F7A61B"></path><path d="M182.53 240.38C185.16 241.11 187.64 241.84 189.68 242.28C190.26 291.75 238.42 331.74 297.97 331.74C357.8 331.74 406.26 291.32 406.26 241.55C406.26 239.8 406.26 238.05 406.11 236.3C406.538 235.444 406.691 234.477 406.55 233.53C405.67 230.61 411.95 231.05 414.43 231.05C416.91 231.05 417.06 229.44 412.53 226.96C408 224.48 406.11 223.31 411.07 222.29C416.03 221.27 416.76 219.81 416.76 219.81C416.76 219.81 422.01 217.48 412.24 215.87C408.591 215.113 404.876 214.721 401.15 214.7C388.6 180.99 352.99 155.7 309.65 151.8C308.04 150.63 309.07 145.96 309.36 143.8C309.65 141.32 308.19 141.03 304.98 145.11C301.77 149.19 300.46 150.95 300.16 145.84C299.86 140.73 298.55 139.84 298.55 139.84C298.55 139.84 296.94 134.29 294.03 143.78C293.15 146.7 292.42 149.18 291.84 151.37C245.43 153.37 206.61 180.12 194.06 216.02C192.89 220.4 192.31 221.42 191.87 223.9C191.29 226.96 184.87 225.36 182.38 225.07C179.89 224.78 179.61 226.38 183.69 229.3C187.77 232.22 189.69 233.68 184.57 234.12C179.45 234.56 178.57 235.87 178.57 235.87C178.57 235.87 173 237.75 182.53 240.38Z" fill="#F7C947"></path><path fill-rule="evenodd" clip-rule="evenodd" d="M262.79 227.25C262.79 239.257 253.057 248.99 241.05 248.99C229.043 248.99 219.31 239.257 219.31 227.25C219.31 215.243 229.043 205.51 241.05 205.51C253.057 205.51 262.79 215.243 262.79 227.25ZM377.2 227.25C377.2 239.257 367.467 248.99 355.46 248.99C343.453 248.99 333.72 239.257 333.72 227.25C333.72 215.243 343.453 205.51 355.46 205.51C367.467 205.51 377.2 215.243 377.2 227.25Z" fill="white"></path><path fill-rule="evenodd" clip-rule="evenodd" d="M241.05 245.19C250.721 245.19 258.56 237.35 258.56 227.68C258.56 218.009 250.721 210.17 241.05 210.17C231.379 210.17 223.54 218.009 223.54 227.68C223.54 237.35 231.379 245.19 241.05 245.19ZM355.46 245.19C365.13 245.19 372.97 237.35 372.97 227.68C372.97 218.009 365.13 210.17 355.46 210.17C345.789 210.17 337.95 218.009 337.95 227.68C337.95 237.35 345.789 245.19 355.46 245.19ZM301.42 246.63L302 245.63L301.88 245.45C301.552 245.813 301.257 246.204 301 246.62C300.724 247.092 300.343 247.496 299.887 247.799C299.431 248.102 298.913 248.297 298.37 248.37C297.523 248.609 296.627 248.614 295.778 248.383C294.929 248.152 294.159 247.695 293.55 247.06L291.94 245.45L291.79 245.6L292.37 246.48C291.737 246.561 291.096 246.415 290.561 246.067C290.026 245.718 289.632 245.192 289.45 244.58C289.2 243.27 289.89 242.39 291.2 241.66C293.735 240.428 296.577 239.973 299.37 240.35C301.184 240.49 302.891 241.265 304.19 242.54C304.391 242.666 304.563 242.833 304.696 243.03C304.828 243.227 304.918 243.449 304.959 243.683C305.001 243.916 304.993 244.156 304.936 244.386C304.88 244.616 304.775 244.832 304.63 245.02C304.264 245.527 303.781 245.938 303.222 246.219C302.664 246.499 302.045 246.64 301.42 246.63Z" fill="#221F1F"></path><path fill-rule="evenodd" clip-rule="evenodd" d="M352.174 218.251C351.141 216.948 349.647 216.092 348 215.86H347.99C347.184 215.777 346.369 215.856 345.594 216.091C344.818 216.326 344.097 216.713 343.473 217.23C342.848 217.746 342.333 218.382 341.956 219.1C341.58 219.817 341.35 220.603 341.28 221.41C341.13 223.066 341.623 224.716 342.656 226.019C343.689 227.322 345.183 228.178 346.83 228.41H346.98C347.776 228.48 348.579 228.391 349.341 228.15C350.103 227.908 350.809 227.518 351.42 227.003C352.031 226.487 352.533 225.855 352.899 225.144C353.265 224.433 353.486 223.657 353.55 222.86C353.7 221.204 353.207 219.554 352.174 218.251ZM367.942 221.293C368.116 219.612 366.894 218.108 365.213 217.934C363.532 217.761 362.028 218.982 361.855 220.664C361.681 222.345 362.903 223.848 364.584 224.022C366.265 224.196 367.769 222.974 367.942 221.293ZM354.44 232.35C355.306 232.437 356.126 232.779 356.797 233.333C357.469 233.886 357.961 234.627 358.212 235.46C358.462 236.293 358.46 237.182 358.206 238.014C357.952 238.846 357.457 239.584 356.783 240.134C356.109 240.685 355.287 241.024 354.421 241.107C353.555 241.191 352.684 241.016 351.917 240.605C351.151 240.193 350.523 239.564 350.114 238.796C349.706 238.028 349.533 237.156 349.62 236.29C349.678 235.715 349.848 235.156 350.121 234.647C350.395 234.138 350.766 233.687 351.213 233.321C351.661 232.955 352.176 232.681 352.73 232.514C353.284 232.348 353.865 232.292 354.44 232.35Z" fill="white"></path><path fill-rule="evenodd" clip-rule="evenodd" d="M237.774 218.251C236.741 216.948 235.247 216.092 233.6 215.86H233.59C231.967 215.718 230.352 216.22 229.097 217.259C227.841 218.297 227.045 219.789 226.88 221.41C226.73 223.066 227.223 224.716 228.256 226.019C229.289 227.322 230.783 228.178 232.43 228.41H232.58C233.376 228.48 234.179 228.391 234.941 228.15C235.703 227.908 236.41 227.518 237.02 227.003C237.631 226.487 238.133 225.855 238.499 225.144C238.865 224.433 239.086 223.657 239.15 222.86C239.3 221.204 238.807 219.554 237.774 218.251ZM251.929 221.957C252.098 220.284 250.879 218.791 249.206 218.622C247.532 218.453 246.039 219.672 245.87 221.345C245.701 223.018 246.92 224.511 248.593 224.68C250.267 224.849 251.76 223.63 251.929 221.957ZM240 232.35C241.149 232.495 242.199 233.077 242.932 233.974C243.665 234.871 244.026 236.015 243.94 237.17C243.892 237.749 243.727 238.312 243.457 238.826C243.186 239.34 242.815 239.794 242.365 240.162C241.916 240.53 241.397 240.803 240.839 240.966C240.282 241.129 239.697 241.178 239.12 241.11C237.971 240.965 236.921 240.383 236.188 239.486C235.455 238.589 235.094 237.445 235.18 236.29C235.238 235.715 235.408 235.156 235.681 234.647C235.955 234.138 236.326 233.687 236.773 233.321C237.221 232.955 237.736 232.681 238.29 232.514C238.844 232.348 239.425 232.292 240 232.35Z" fill="white"></path><path opacity="0.6" fill-rule="evenodd" clip-rule="evenodd" d="M241.05 264.61C241.05 269.448 232.23 273.37 221.35 273.37C210.47 273.37 201.65 269.448 201.65 264.61C201.65 259.772 210.47 255.85 221.35 255.85C232.23 255.85 241.05 259.772 241.05 264.61ZM388.44 265.19C388.44 270.028 379.62 273.95 368.74 273.95C357.86 273.95 349.04 270.028 349.04 265.19C349.04 260.352 357.86 256.43 368.74 256.43C379.62 256.43 388.44 260.352 388.44 265.19Z" fill="#F5A51C"></path><path d="M296.5 250.89V257C296.494 257.117 296.513 257.234 296.555 257.343C296.598 257.453 296.662 257.552 296.745 257.635C296.828 257.718 296.927 257.782 297.037 257.825C297.146 257.867 297.263 257.886 297.38 257.88C297.5 257.899 297.622 257.889 297.738 257.851C297.853 257.814 297.958 257.75 298.044 257.664C298.13 257.578 298.194 257.473 298.231 257.358C298.269 257.242 298.279 257.12 298.26 257V250.87C298.273 250.747 298.26 250.623 298.222 250.506C298.184 250.388 298.122 250.28 298.04 250.188C297.957 250.096 297.856 250.023 297.743 249.973C297.631 249.922 297.508 249.896 297.385 249.896C297.262 249.896 297.139 249.922 297.027 249.973C296.914 250.023 296.813 250.096 296.73 250.188C296.648 250.28 296.586 250.388 296.548 250.506C296.51 250.623 296.497 250.747 296.51 250.87L296.5 250.89Z" fill="#F3A41D"></path><path d="M274.9 259.79C274.9 269.86 285.12 278.03 297.67 278.03C310.22 278.03 320.44 269.86 320.44 259.79H274.9Z" fill="#8B1A1C"></path><path d="M309.05 275C305.465 276.751 301.508 277.602 297.52 277.48C293.243 277.489 289.031 276.437 285.26 274.42C288.62 271.464 292.898 269.761 297.37 269.6C302.63 269.13 306.87 272.49 309.05 275Z" fill="#CD6EA8"></path><path d="M258 46.15L203.4 74.46C202.595 74.8775 201.657 74.9583 200.793 74.6845C199.928 74.4107 199.208 73.8048 198.79 73L181.49 39.62C181.252 39.145 181.129 38.6211 181.129 38.09C181.129 37.5589 181.252 37.035 181.49 36.56L198.14 1.93C198.455 1.2564 198.98 0.703618 199.637 0.355369C200.294 0.00712019 201.046 -0.117633 201.78 -9.76026e-07L239.7 6.37C240.223 6.45793 240.719 6.66634 241.147 6.97874C241.576 7.29114 241.926 7.69897 242.17 8.17L259.47 41.55C259.884 42.3552 259.961 43.2915 259.686 44.1538C259.41 45.016 258.804 45.7339 258 46.15Z" fill="#499FFF"></path><path fill-rule="evenodd" clip-rule="evenodd" d="M203.395 74.4624C202.693 74.828 201.884 74.9368 201.11 74.77L201.111 74.7686C201.004 74.7458 200.898 74.7178 200.793 74.6845C199.928 74.4107 199.208 73.8048 198.79 73L181.49 39.62C181.253 39.1618 181.123 38.6557 181.11 38.14L220.869 41.3427L241.17 7C241.588 7.30869 241.93 7.70889 242.17 8.17L259.46 41.54C259.878 42.345 259.958 43.2828 259.684 44.1473C259.65 44.2538 259.612 44.3581 259.568 44.4599L259.57 44.46C259.26 45.1891 258.704 45.7868 258 46.15L203.4 74.46C203.398 74.4608 203.397 74.4616 203.395 74.4624Z" fill="#95DAFF"></path><path fill-rule="evenodd" clip-rule="evenodd" d="M244.93 33.91L237 38C236.8 38.1046 236.648 38.2839 236.579 38.4991C236.51 38.7143 236.528 38.9482 236.63 39.15C236.735 39.3505 236.914 39.5017 237.129 39.5709C237.344 39.6402 237.578 39.6219 237.78 39.52L245.78 35.39C245.98 35.2854 246.132 35.1061 246.201 34.8909C246.27 34.6757 246.252 34.4418 246.15 34.24C246.095 34.1348 246.019 34.042 245.926 33.9677C245.834 33.8933 245.727 33.8389 245.612 33.8079C245.498 33.7769 245.378 33.77 245.26 33.7876C245.143 33.8051 245.031 33.8468 244.93 33.91ZM233.93 39.61L231.65 40.79C231.45 40.8946 231.298 41.0739 231.229 41.2891C231.16 41.5043 231.178 41.7382 231.28 41.94C231.385 42.1405 231.564 42.2917 231.779 42.3609C231.994 42.4302 232.228 42.4119 232.43 42.31L234.71 41.13C234.91 41.0254 235.062 40.8461 235.131 40.6309C235.2 40.4157 235.182 40.1818 235.08 39.98C234.975 39.7795 234.796 39.6283 234.581 39.5591C234.366 39.4898 234.132 39.5081 233.93 39.61ZM233.088 43.548L239.16 40.4002C239.577 40.1842 240.09 40.347 240.306 40.7637L240.311 40.7726C240.527 41.1894 240.364 41.7024 239.947 41.9184L233.874 45.0662C233.458 45.2822 232.945 45.1195 232.729 44.7027L232.724 44.6938C232.508 44.2771 232.671 43.7641 233.088 43.548ZM245.31 43L235.45 48.11C235.248 48.2119 235.014 48.2302 234.799 48.1609C234.584 48.0917 234.405 47.9405 234.3 47.74C234.198 47.5382 234.18 47.3043 234.249 47.0891C234.318 46.8739 234.47 46.6946 234.67 46.59L244.53 41.48C244.732 41.3781 244.966 41.3598 245.181 41.4291C245.396 41.4983 245.575 41.6495 245.68 41.85C245.782 42.0518 245.8 42.2857 245.731 42.5009C245.662 42.7161 245.51 42.8954 245.31 43ZM247.56 39.9199L247.94 39.72C248.142 39.6181 248.376 39.5998 248.591 39.6691C248.806 39.7383 248.985 39.8895 249.09 40.09C249.192 40.2918 249.21 40.5257 249.141 40.7408C249.072 40.9561 248.92 41.1354 248.72 41.24L248.34 41.4399C248.138 41.5419 247.904 41.5602 247.689 41.4908C247.474 41.4216 247.295 41.2705 247.19 41.07C247.088 40.8682 247.07 40.6343 247.139 40.4191C247.208 40.2039 247.36 40.0246 247.56 39.9199ZM181.11 38.14L224.98 34.41L220.88 41.34L181.11 38.14Z" fill="#0773EE"></path><path d="M211.94 40.62L201.11 74.77L220.88 41.34L211.94 40.62Z" fill="#499FFF"></path><path d="M79.56 87.94L78.31 107.37L0.420013 75.97L79.56 87.94Z" fill="#499FFF"></path><path d="M68.48 94.06L78.31 107.37L0.420013 75.97L68.48 94.06Z" fill="#0773EE"></path><path fill-rule="evenodd" clip-rule="evenodd" d="M0.420013 75.97L94.26 84.25L79.56 87.94L0.420013 75.97ZM0.420013 75.97L53.82 112.51L68.48 94.06L0.420013 75.97Z" fill="#95DAFF"></path><path d="M78.35 107.41L79.76 88.04L94.28 84.32L94.26 84.25L79.54 87.91L78.18 106.9L68.48 94.06L68.4 94.17L53.82 112.51L68.48 94.41L78.35 107.41Z" fill="white"></path><path d="M451.38 399.18L454.4 420.74L505.88 379.06L451.38 399.18Z" fill="#499FFF"></path><path d="M466.02 405.28L454.4 420.74L505.88 379.06L466.02 405.28Z" fill="#0773EE"></path><path fill-rule="evenodd" clip-rule="evenodd" d="M505.88 379.06L432.29 393.58L451.38 399.18L505.88 379.06ZM505.88 379.06L486.17 422.32L466.02 405.28L505.88 379.06Z" fill="#95DAFF"></path><path d="M454.37 420.8L451.2 399.3L432.28 393.65L432.29 393.58L451.39 399.15L454.44 420.28L466.02 405.28L466.12 405.37L486.17 422.32L466.08 405.61L454.37 420.8Z" fill="white"></path></g><defs><linearGradient id="paint0_linear_101_42" x1="262.32" y1="159.1" x2="262.32" y2="212.04" gradientUnits="userSpaceOnUse"><stop stop-color="white" stop-opacity="0"></stop><stop offset="0.67" stop-color="#499FFF"></stop></linearGradient><linearGradient id="paint1_linear_101_42" x1="262.32" y1="264.1" x2="262.32" y2="317.04" gradientUnits="userSpaceOnUse"><stop stop-color="white" stop-opacity="0"></stop><stop offset="0.67" stop-color="#499FFF"></stop></linearGradient><clipPath id="clip0_101_42"><rect width="585" height="437" fill="white"></rect></clipPath></defs></svg>