<svg width="16" height="16" viewBox="0 0 16 16" fill="none" xmlns="http://www.w3.org/2000/svg">
<path d="M5.83398 11.7417V14.8337C5.83398 15.0497 5.97265 15.241 6.17798 15.309C6.22931 15.3257 6.28198 15.3337 6.33398 15.3337C6.48998 15.3337 6.64064 15.2603 6.73664 15.1297L8.5453 12.6684L5.83398 11.7417Z" fill="white"/>
<path d="M15.7899 0.092725C15.6366 -0.0159408 15.4352 -0.0306073 15.2686 0.0567253L0.268694 7.88999C0.0913622 7.98266 -0.0133036 8.17199 0.00136297 8.37132C0.0166962 8.57132 0.149362 8.74199 0.338027 8.80665L4.50799 10.232L13.3886 2.6387L6.51664 10.918L13.5052 13.3066C13.5573 13.3239 13.6119 13.3333 13.6666 13.3333C13.7572 13.3333 13.8472 13.3086 13.9266 13.2606C14.0532 13.1833 14.1392 13.0533 14.1612 12.9073L15.9946 0.574054C16.0219 0.387389 15.9432 0.202057 15.7899 0.092725Z" fill="white"/>
</svg>
