<svg width="42" height="42" viewBox="0 0 42 42" fill="none" xmlns="http://www.w3.org/2000/svg">
<rect width="42" height="42" rx="5" fill="url(#paint0_linear_847_183)"/>
<path d="M28 24.5V17.5C28 16.672 27.328 16 26.5 16C25.672 16 25 16.672 25 17.5V24.5C25 25.328 25.672 26 26.5 26C27.328 26 28 25.328 28 24.5ZM21.5 33C20.672 33 20 32.328 20 31.5V10.5C20 9.672 20.672 9 21.5 9C22.328 9 23 9.672 23 10.5V31.5C23 32.328 22.328 33 21.5 33ZM31.5 29C30.672 29 30 28.328 30 27.5V14.5C30 13.672 30.672 13 31.5 13C32.328 13 33 13.672 33 14.5V27.5C33 28.328 32.328 29 31.5 29ZM16.5 28C15.672 28 15 27.328 15 26.5V15.5C15 14.672 15.672 14 16.5 14C17.328 14 18 14.672 18 15.5V26.5C18 27.328 17.328 28 16.5 28ZM11.5 24C10.672 24 10 23.328 10 22.5V19.5C10 18.672 10.672 18 11.5 18C12.328 18 13 18.672 13 19.5V22.5C13 23.328 12.328 24 11.5 24Z" fill="white"/>
<defs>
<linearGradient id="paint0_linear_847_183" x1="21" y1="0" x2="21" y2="42" gradientUnits="userSpaceOnUse">
<stop stop-color="#5550FF"/>
<stop offset="1" stop-color="#3C4984"/>
</linearGradient>
</defs>
</svg>
