<svg width="792" height="441" viewBox="0 0 792 441" fill="none" xmlns="http://www.w3.org/2000/svg">
<rect x="23" width="769" height="441" rx="30" fill="#B7B3FF"/>
<rect x="0.5" y="7.5" width="778" height="426" rx="29.5" fill="#CECBFF" stroke="#908BFF"/>
<path opacity="0.6" d="M0 323H779V404C779 420.569 765.569 434 749 434H30C13.4315 434 0 420.569 0 404V323Z" fill="#908BFF"/>
<path d="M748 6.5C764.845 6.5 778.5 20.1553 778.5 37V61.5H0.5V37C0.5 20.1553 14.1553 6.5 31 6.5H748Z" fill="#CECBFF" stroke="#908BFF"/>
<ellipse cx="26" cy="34.5" rx="7" ry="6.5" fill="#F0635E"/>
<circle cx="44.5" cy="34.5" r="6.5" fill="#FFB931"/>
<circle cx="62.5" cy="34.5" r="6.5" fill="#28C941"/>
<path opacity="0.7" d="M310.483 43.8864C310.213 43.8864 309.972 43.8639 309.761 43.8189C309.55 43.7784 309.403 43.7379 309.322 43.6974L309.727 42.294C310.114 42.393 310.456 42.429 310.753 42.402C311.05 42.375 311.313 42.2423 311.542 42.0039C311.776 41.77 311.99 41.3899 312.183 40.8636L312.48 40.054L308.648 29.6364H310.375L313.236 37.8949H313.344L316.205 29.6364H317.932L313.533 41.5114C313.335 42.0466 313.09 42.4897 312.797 42.8406C312.505 43.1959 312.165 43.459 311.778 43.63C311.396 43.8009 310.964 43.8864 310.483 43.8864ZM323.873 40.2159C322.937 40.2159 322.116 39.9933 321.41 39.5479C320.708 39.1026 320.16 38.4796 319.764 37.679C319.372 36.8783 319.177 35.9427 319.177 34.8722C319.177 33.7926 319.372 32.8503 319.764 32.0451C320.16 31.2399 320.708 30.6147 321.41 30.1694C322.116 29.7241 322.937 29.5014 323.873 29.5014C324.808 29.5014 325.627 29.7241 326.329 30.1694C327.035 30.6147 327.584 31.2399 327.975 32.0451C328.371 32.8503 328.569 33.7926 328.569 34.8722C328.569 35.9427 328.371 36.8783 327.975 37.679C327.584 38.4796 327.035 39.1026 326.329 39.5479C325.627 39.9933 324.808 40.2159 323.873 40.2159ZM323.873 38.7855C324.583 38.7855 325.168 38.6033 325.627 38.239C326.086 37.8746 326.425 37.3956 326.646 36.8018C326.866 36.2081 326.976 35.5649 326.976 34.8722C326.976 34.1795 326.866 33.534 326.646 32.9357C326.425 32.3375 326.086 31.8539 325.627 31.4851C325.168 31.1162 324.583 30.9318 323.873 30.9318C323.162 30.9318 322.577 31.1162 322.118 31.4851C321.66 31.8539 321.32 32.3375 321.1 32.9357C320.879 33.534 320.769 34.1795 320.769 34.8722C320.769 35.5649 320.879 36.2081 321.1 36.8018C321.32 37.3956 321.66 37.8746 322.118 38.239C322.577 38.6033 323.162 38.7855 323.873 38.7855ZM337.531 35.7628V29.6364H339.123V40H337.531V38.2457H337.423C337.18 38.772 336.802 39.2196 336.289 39.5884C335.776 39.9528 335.129 40.1349 334.346 40.1349C333.698 40.1349 333.122 39.9933 332.619 39.7099C332.115 39.422 331.719 38.9902 331.431 38.4144C331.143 37.8342 330.999 37.1032 330.999 36.2216V29.6364H332.592V36.1136C332.592 36.8693 332.803 37.4721 333.226 37.9219C333.653 38.3717 334.198 38.5966 334.859 38.5966C335.255 38.5966 335.657 38.4954 336.066 38.293C336.48 38.0906 336.827 37.7802 337.106 37.3619C337.389 36.9435 337.531 36.4105 337.531 35.7628ZM342.039 40V29.6364H343.578V31.2017H343.686C343.875 30.6889 344.217 30.2728 344.711 29.9535C345.206 29.6341 345.764 29.4744 346.385 29.4744C346.502 29.4744 346.648 29.4767 346.823 29.4812C346.999 29.4857 347.131 29.4924 347.221 29.5014V31.1207C347.167 31.1072 347.044 31.087 346.85 31.06C346.661 31.0285 346.461 31.0128 346.25 31.0128C345.746 31.0128 345.296 31.1185 344.9 31.3299C344.509 31.5368 344.199 31.8247 343.969 32.1935C343.744 32.5579 343.632 32.974 343.632 33.4418V40H342.039ZM351.624 40L348.466 29.6364H350.139L352.379 37.571H352.487L354.7 29.6364H356.401L358.587 37.544H358.695L360.935 29.6364H362.608L359.45 40H357.885L355.618 32.0384H355.456L353.189 40H351.624ZM368.706 40.2159C367.707 40.2159 366.846 39.9955 366.122 39.5547C365.402 39.1094 364.847 38.4886 364.455 37.6925C364.068 36.8918 363.875 35.9607 363.875 34.8991C363.875 33.8376 364.068 32.902 364.455 32.0923C364.847 31.2782 365.391 30.6439 366.088 30.1896C366.79 29.7308 367.608 29.5014 368.544 29.5014C369.084 29.5014 369.617 29.5914 370.143 29.7713C370.669 29.9512 371.148 30.2436 371.58 30.6484C372.012 31.0488 372.356 31.5795 372.612 32.2408C372.869 32.902 372.997 33.7161 372.997 34.6832V35.358H365.008V33.9815H371.378C371.378 33.3968 371.261 32.875 371.027 32.4162C370.797 31.9574 370.469 31.5953 370.042 31.3299C369.619 31.0645 369.12 30.9318 368.544 30.9318C367.91 30.9318 367.361 31.0893 366.898 31.4041C366.439 31.7145 366.086 32.1193 365.838 32.6186C365.591 33.1179 365.467 33.6532 365.467 34.2244V35.142C365.467 35.9247 365.602 36.5882 365.872 37.1325C366.146 37.6722 366.527 38.0838 367.012 38.3672C367.498 38.6461 368.063 38.7855 368.706 38.7855C369.124 38.7855 369.502 38.727 369.839 38.6101C370.181 38.4886 370.476 38.3087 370.723 38.0703C370.971 37.8274 371.162 37.526 371.297 37.1662L372.835 37.598C372.673 38.1198 372.401 38.5786 372.019 38.9744C371.636 39.3658 371.164 39.6716 370.602 39.892C370.04 40.108 369.408 40.2159 368.706 40.2159ZM375.635 40V26.1818H377.228V31.2827H377.362C377.479 31.1027 377.641 30.8733 377.848 30.5945C378.06 30.3111 378.361 30.0592 378.752 29.8388C379.148 29.6139 379.684 29.5014 380.358 29.5014C381.231 29.5014 382 29.7196 382.666 30.1559C383.331 30.5922 383.851 31.2107 384.224 32.0114C384.598 32.812 384.784 33.7566 384.784 34.8452C384.784 35.9427 384.598 36.8941 384.224 37.6992C383.851 38.4999 383.334 39.1206 382.672 39.5614C382.011 39.9978 381.249 40.2159 380.385 40.2159C379.719 40.2159 379.186 40.1057 378.786 39.8853C378.386 39.6604 378.078 39.4062 377.862 39.1229C377.646 38.835 377.479 38.5966 377.362 38.4077H377.174V40H375.635ZM377.201 34.8182C377.201 35.6009 377.315 36.2913 377.545 36.8896C377.774 37.4833 378.109 37.9489 378.55 38.2862C378.991 38.6191 379.531 38.7855 380.169 38.7855C380.835 38.7855 381.391 38.6101 381.836 38.2592C382.286 37.9039 382.623 37.4271 382.848 36.8288C383.077 36.2261 383.192 35.5559 383.192 34.8182C383.192 34.0895 383.08 33.4328 382.855 32.848C382.634 32.2588 382.299 31.7932 381.849 31.4513C381.404 31.105 380.844 30.9318 380.169 30.9318C379.522 30.9318 378.977 31.096 378.536 31.4244C378.096 31.7482 377.763 32.2025 377.538 32.7873C377.313 33.3675 377.201 34.0445 377.201 34.8182ZM394.561 31.9574L393.131 32.3622C393.041 32.1238 392.908 31.8922 392.733 31.6673C392.562 31.4379 392.328 31.2489 392.031 31.1005C391.734 30.9521 391.354 30.8778 390.891 30.8778C390.256 30.8778 389.728 31.024 389.305 31.3164C388.887 31.6043 388.677 31.9709 388.677 32.4162C388.677 32.812 388.821 33.1246 389.109 33.354C389.397 33.5835 389.847 33.7746 390.459 33.9276L391.997 34.3054C392.924 34.5303 393.614 34.8744 394.068 35.3377C394.523 35.7965 394.75 36.388 394.75 37.1122C394.75 37.706 394.579 38.2367 394.237 38.7045C393.9 39.1723 393.427 39.5412 392.82 39.8111C392.213 40.081 391.507 40.2159 390.702 40.2159C389.645 40.2159 388.77 39.9865 388.077 39.5277C387.384 39.0689 386.946 38.3987 386.761 37.517L388.273 37.1392C388.417 37.697 388.689 38.1153 389.089 38.3942C389.494 38.6731 390.022 38.8125 390.675 38.8125C391.417 38.8125 392.006 38.6551 392.442 38.3402C392.883 38.0208 393.104 37.6385 393.104 37.1932C393.104 36.8333 392.978 36.532 392.726 36.2891C392.474 36.0417 392.087 35.8572 391.565 35.7358L389.838 35.331C388.889 35.1061 388.192 34.7575 387.746 34.2852C387.306 33.8084 387.085 33.2124 387.085 32.4972C387.085 31.9124 387.249 31.3951 387.578 30.9453C387.911 30.4955 388.363 30.1424 388.934 29.886C389.51 29.6296 390.162 29.5014 390.891 29.5014C391.916 29.5014 392.721 29.7263 393.306 30.1761C393.895 30.6259 394.314 31.2197 394.561 31.9574ZM397.147 40V29.6364H398.739V40H397.147ZM397.956 27.9091C397.646 27.9091 397.378 27.8034 397.154 27.592C396.933 27.3806 396.823 27.1264 396.823 26.8295C396.823 26.5327 396.933 26.2785 397.154 26.0671C397.378 25.8557 397.646 25.75 397.956 25.75C398.267 25.75 398.532 25.8557 398.753 26.0671C398.978 26.2785 399.09 26.5327 399.09 26.8295C399.09 27.1264 398.978 27.3806 398.753 27.592C398.532 27.8034 398.267 27.9091 397.956 27.9091ZM406.163 29.6364V30.9858H400.792V29.6364H406.163ZM402.357 27.1534H403.95V37.0312C403.95 37.4811 404.015 37.8184 404.145 38.0433C404.28 38.2637 404.451 38.4122 404.658 38.4886C404.87 38.5606 405.092 38.5966 405.326 38.5966C405.502 38.5966 405.645 38.5876 405.758 38.5696C405.87 38.5471 405.96 38.5291 406.028 38.5156L406.352 39.946C406.244 39.9865 406.093 40.027 405.9 40.0675C405.706 40.1125 405.461 40.1349 405.164 40.1349C404.714 40.1349 404.274 40.0382 403.842 39.8448C403.414 39.6514 403.059 39.3568 402.776 38.9609C402.497 38.5651 402.357 38.0658 402.357 37.4631V27.1534ZM412.792 40.2159C411.793 40.2159 410.932 39.9955 410.208 39.5547C409.488 39.1094 408.932 38.4886 408.541 37.6925C408.154 36.8918 407.961 35.9607 407.961 34.8991C407.961 33.8376 408.154 32.902 408.541 32.0923C408.932 31.2782 409.477 30.6439 410.174 30.1896C410.876 29.7308 411.694 29.5014 412.63 29.5014C413.17 29.5014 413.703 29.5914 414.229 29.7713C414.755 29.9512 415.234 30.2436 415.666 30.6484C416.098 31.0488 416.442 31.5795 416.698 32.2408C416.955 32.902 417.083 33.7161 417.083 34.6832V35.358H409.094V33.9815H415.464C415.464 33.3968 415.347 32.875 415.113 32.4162C414.883 31.9574 414.555 31.5953 414.128 31.3299C413.705 31.0645 413.206 30.9318 412.63 30.9318C411.996 30.9318 411.447 31.0893 410.984 31.4041C410.525 31.7145 410.172 32.1193 409.924 32.6186C409.677 33.1179 409.553 33.6532 409.553 34.2244V35.142C409.553 35.9247 409.688 36.5882 409.958 37.1325C410.232 37.6722 410.612 38.0838 411.098 38.3672C411.584 38.6461 412.149 38.7855 412.792 38.7855C413.21 38.7855 413.588 38.727 413.925 38.6101C414.267 38.4886 414.562 38.3087 414.809 38.0703C415.057 37.8274 415.248 37.526 415.383 37.1662L416.921 37.598C416.759 38.1198 416.487 38.5786 416.105 38.9744C415.722 39.3658 415.25 39.6716 414.688 39.892C414.126 40.108 413.494 40.2159 412.792 40.2159ZM420.666 40.108C420.333 40.108 420.047 39.9888 419.809 39.7504C419.57 39.512 419.451 39.2263 419.451 38.8935C419.451 38.5606 419.57 38.275 419.809 38.0366C420.047 37.7982 420.333 37.679 420.666 37.679C420.999 37.679 421.284 37.7982 421.523 38.0366C421.761 38.275 421.88 38.5606 421.88 38.8935C421.88 39.1139 421.824 39.3163 421.712 39.5007C421.604 39.6851 421.457 39.8336 421.273 39.946C421.093 40.054 420.891 40.108 420.666 40.108ZM428.948 40.2159C427.976 40.2159 427.14 39.9865 426.438 39.5277C425.736 39.0689 425.196 38.4369 424.819 37.6317C424.441 36.8266 424.252 35.9067 424.252 34.8722C424.252 33.8196 424.445 32.8907 424.832 32.0856C425.223 31.2759 425.768 30.6439 426.465 30.1896C427.167 29.7308 427.985 29.5014 428.921 29.5014C429.65 29.5014 430.306 29.6364 430.891 29.9062C431.476 30.1761 431.955 30.554 432.328 31.0398C432.702 31.5256 432.933 32.0923 433.023 32.7401H431.431C431.309 32.2678 431.04 31.8494 430.621 31.4851C430.207 31.1162 429.65 30.9318 428.948 30.9318C428.327 30.9318 427.783 31.0937 427.315 31.4176C426.852 31.737 426.49 32.189 426.229 32.7738C425.972 33.354 425.844 34.0355 425.844 34.8182C425.844 35.6188 425.97 36.3161 426.222 36.9098C426.478 37.5036 426.838 37.9646 427.302 38.293C427.769 38.6213 428.318 38.7855 428.948 38.7855C429.362 38.7855 429.737 38.7135 430.075 38.5696C430.412 38.4257 430.698 38.2188 430.932 37.9489C431.165 37.679 431.332 37.3551 431.431 36.9773H433.023C432.933 37.589 432.711 38.14 432.355 38.6303C432.004 39.1161 431.539 39.503 430.959 39.7908C430.383 40.0742 429.713 40.2159 428.948 40.2159ZM439.561 40.2159C438.626 40.2159 437.805 39.9933 437.098 39.5479C436.397 39.1026 435.848 38.4796 435.452 37.679C435.061 36.8783 434.865 35.9427 434.865 34.8722C434.865 33.7926 435.061 32.8503 435.452 32.0451C435.848 31.2399 436.397 30.6147 437.098 30.1694C437.805 29.7241 438.626 29.5014 439.561 29.5014C440.497 29.5014 441.315 29.7241 442.017 30.1694C442.723 30.6147 443.272 31.2399 443.663 32.0451C444.059 32.8503 444.257 33.7926 444.257 34.8722C444.257 35.9427 444.059 36.8783 443.663 37.679C443.272 38.4796 442.723 39.1026 442.017 39.5479C441.315 39.9933 440.497 40.2159 439.561 40.2159ZM439.561 38.7855C440.272 38.7855 440.857 38.6033 441.315 38.239C441.774 37.8746 442.114 37.3956 442.334 36.8018C442.555 36.2081 442.665 35.5649 442.665 34.8722C442.665 34.1795 442.555 33.534 442.334 32.9357C442.114 32.3375 441.774 31.8539 441.315 31.4851C440.857 31.1162 440.272 30.9318 439.561 30.9318C438.85 30.9318 438.266 31.1162 437.807 31.4851C437.348 31.8539 437.008 32.3375 436.788 32.9357C436.568 33.534 436.457 34.1795 436.457 34.8722C436.457 35.5649 436.568 36.2081 436.788 36.8018C437.008 37.3956 437.348 37.8746 437.807 38.239C438.266 38.6033 438.85 38.7855 439.561 38.7855ZM446.688 40V29.6364H448.226V31.2557H448.361C448.577 30.7024 448.926 30.2728 449.407 29.967C449.888 29.6566 450.466 29.5014 451.141 29.5014C451.825 29.5014 452.394 29.6566 452.848 29.967C453.307 30.2728 453.664 30.7024 453.921 31.2557H454.029C454.294 30.7204 454.692 30.2953 455.223 29.9805C455.754 29.6611 456.39 29.5014 457.132 29.5014C458.059 29.5014 458.817 29.7915 459.406 30.3718C459.996 30.9476 460.29 31.8449 460.29 33.0639V40H458.698V33.0639C458.698 32.2992 458.489 31.7527 458.07 31.4244C457.652 31.096 457.159 30.9318 456.593 30.9318C455.864 30.9318 455.299 31.1522 454.899 31.593C454.499 32.0294 454.299 32.5826 454.299 33.2528V40H452.679V32.902C452.679 32.3127 452.488 31.8382 452.106 31.4783C451.723 31.114 451.231 30.9318 450.628 30.9318C450.214 30.9318 449.828 31.042 449.468 31.2624C449.112 31.4828 448.824 31.7887 448.604 32.18C448.388 32.5669 448.28 33.0144 448.28 33.5227V40H446.688Z" fill="black"/>
<rect x="26" y="88" width="338" height="31" rx="15.5" fill="#908BFF"/>
<rect x="26" y="130" width="191" height="31" rx="15.5" fill="#908BFF"/>
<rect x="108" y="234" width="126" height="31" rx="15.5" fill="#908BFF"/>
<rect x="108" y="270" width="126" height="31" rx="15.5" fill="#908BFF"/>
<rect x="26" y="174" width="313" height="13" rx="6.5" fill="#908BFF"/>
<rect x="26" y="192" width="290" height="13" rx="6.5" fill="#908BFF"/>
<rect x="26" y="210" width="304" height="13" rx="6.5" fill="#908BFF"/>
</svg>
