<svg width="810" height="545" viewBox="0 0 810 545" fill="none" xmlns="http://www.w3.org/2000/svg">
<rect x="23.5225" width="786.477" height="545" rx="30" fill="#B7B3FF"/>
<rect x="0.5" y="9.15079" width="795.705" height="526.698" rx="29.5" fill="#CECBFF" stroke="#908BFF"/>
<path opacity="0.6" d="M0 399.172H796.705V506.349C796.705 522.918 783.273 536.349 766.705 536.349H30C13.4315 536.349 0 522.918 0 506.349V399.172Z" fill="#908BFF"/>
<path d="M765.682 8.15079C782.526 8.15084 796.182 21.8061 796.182 38.6508V75.8852H0.522461V38.6508C0.522461 21.8061 14.1778 8.15079 31.0225 8.15079H765.682Z" fill="#CECBFF" stroke="#908BFF"/>
<ellipse cx="26.3932" cy="43.1752" rx="7.71839" ry="7.94536" fill="#F0635E"/>
<ellipse cx="46.5" cy="43.055" rx="7.5" ry="8.175" fill="#FFB931"/>
<ellipse cx="66.5" cy="43.055" rx="7.5" ry="8.175" fill="#28C941"/>
<path opacity="0.7" d="M317.483 49.0746C317.213 49.0746 316.972 49.0521 316.761 49.0071C316.55 48.9666 316.403 48.9261 316.322 48.8856L316.727 47.4822C317.114 47.5812 317.456 47.6172 317.753 47.5902C318.05 47.5632 318.313 47.4305 318.542 47.1921C318.776 46.9582 318.99 46.5781 319.183 46.0518L319.48 45.2422L315.648 34.8246H317.375L320.236 43.0831H320.344L323.205 34.8246H324.932L320.533 46.6996C320.335 47.2348 320.09 47.6779 319.797 48.0288C319.505 48.3841 319.165 48.6472 318.778 48.8182C318.396 48.9891 317.964 49.0746 317.483 49.0746ZM330.873 45.4041C329.937 45.4041 329.116 45.1815 328.41 44.7361C327.708 44.2908 327.16 43.6678 326.764 42.8672C326.372 42.0665 326.177 41.1309 326.177 40.0604C326.177 38.9808 326.372 38.0385 326.764 37.2333C327.16 36.4281 327.708 35.8029 328.41 35.3576C329.116 34.9123 329.937 34.6896 330.873 34.6896C331.808 34.6896 332.627 34.9123 333.329 35.3576C334.035 35.8029 334.584 36.4281 334.975 37.2333C335.371 38.0385 335.569 38.9808 335.569 40.0604C335.569 41.1309 335.371 42.0665 334.975 42.8672C334.584 43.6678 334.035 44.2908 333.329 44.7361C332.627 45.1815 331.808 45.4041 330.873 45.4041ZM330.873 43.9737C331.583 43.9737 332.168 43.7915 332.627 43.4272C333.086 43.0628 333.425 42.5838 333.646 41.99C333.866 41.3963 333.976 40.7531 333.976 40.0604C333.976 39.3677 333.866 38.7222 333.646 38.1239C333.425 37.5257 333.086 37.0421 332.627 36.6733C332.168 36.3044 331.583 36.12 330.873 36.12C330.162 36.12 329.577 36.3044 329.118 36.6733C328.66 37.0421 328.32 37.5257 328.1 38.1239C327.879 38.7222 327.769 39.3677 327.769 40.0604C327.769 40.7531 327.879 41.3963 328.1 41.99C328.32 42.5838 328.66 43.0628 329.118 43.4272C329.577 43.7915 330.162 43.9737 330.873 43.9737ZM344.531 40.951V34.8246H346.123V45.1882H344.531V43.4339H344.423C344.18 43.9602 343.802 44.4078 343.289 44.7766C342.776 45.141 342.129 45.3231 341.346 45.3231C340.698 45.3231 340.122 45.1815 339.619 44.8981C339.115 44.6102 338.719 44.1784 338.431 43.6026C338.143 43.0224 337.999 42.2914 337.999 41.4098V34.8246H339.592V41.3018C339.592 42.0575 339.803 42.6603 340.226 43.1101C340.653 43.5599 341.198 43.7848 341.859 43.7848C342.255 43.7848 342.657 43.6836 343.066 43.4812C343.48 43.2788 343.827 42.9684 344.106 42.5501C344.389 42.1317 344.531 41.5987 344.531 40.951ZM349.039 45.1882V34.8246H350.578V36.3899H350.686C350.875 35.8771 351.217 35.461 351.711 35.1417C352.206 34.8223 352.764 34.6626 353.385 34.6626C353.502 34.6626 353.648 34.6649 353.823 34.6694C353.999 34.6739 354.131 34.6806 354.221 34.6896V36.3089C354.167 36.2954 354.044 36.2752 353.85 36.2482C353.661 36.2167 353.461 36.201 353.25 36.201C352.746 36.201 352.296 36.3067 351.9 36.5181C351.509 36.725 351.199 37.0129 350.969 37.3817C350.744 37.7461 350.632 38.1622 350.632 38.63V45.1882H349.039ZM358.624 45.1882L355.466 34.8246H357.139L359.379 42.7592H359.487L361.7 34.8246H363.401L365.587 42.7322H365.695L367.935 34.8246H369.608L366.45 45.1882H364.885L362.618 37.2266H362.456L360.189 45.1882H358.624ZM375.706 45.4041C374.707 45.4041 373.846 45.1837 373.122 44.7429C372.402 44.2976 371.847 43.6768 371.455 42.8807C371.068 42.08 370.875 41.1489 370.875 40.0873C370.875 39.0258 371.068 38.0902 371.455 37.2805C371.847 36.4664 372.391 35.8321 373.088 35.3778C373.79 34.919 374.608 34.6896 375.544 34.6896C376.084 34.6896 376.617 34.7796 377.143 34.9595C377.669 35.1394 378.148 35.4318 378.58 35.8366C379.012 36.237 379.356 36.7677 379.612 37.429C379.869 38.0902 379.997 38.9043 379.997 39.8714V40.5462H372.008V39.1697H378.378C378.378 38.585 378.261 38.0632 378.027 37.6044C377.797 37.1456 377.469 36.7835 377.042 36.5181C376.619 36.2527 376.12 36.12 375.544 36.12C374.91 36.12 374.361 36.2775 373.898 36.5923C373.439 36.9027 373.086 37.3075 372.838 37.8068C372.591 38.3061 372.467 38.8414 372.467 39.4126V40.3302C372.467 41.1129 372.602 41.7764 372.872 42.3207C373.146 42.8604 373.527 43.272 374.012 43.5554C374.498 43.8343 375.063 43.9737 375.706 43.9737C376.124 43.9737 376.502 43.9152 376.839 43.7983C377.181 43.6768 377.476 43.4969 377.723 43.2585C377.971 43.0156 378.162 42.7142 378.297 42.3544L379.835 42.7862C379.673 43.308 379.401 43.7668 379.019 44.1626C378.636 44.554 378.164 44.8598 377.602 45.0802C377.04 45.2962 376.408 45.4041 375.706 45.4041ZM382.635 45.1882V31.37H384.228V36.4709H384.362C384.479 36.2909 384.641 36.0615 384.848 35.7827C385.06 35.4993 385.361 35.2474 385.752 35.027C386.148 34.8021 386.684 34.6896 387.358 34.6896C388.231 34.6896 389 34.9078 389.666 35.3441C390.331 35.7804 390.851 36.3989 391.224 37.1996C391.598 38.0002 391.784 38.9448 391.784 40.0334C391.784 41.1309 391.598 42.0823 391.224 42.8874C390.851 43.6881 390.334 44.3088 389.672 44.7496C389.011 45.186 388.249 45.4041 387.385 45.4041C386.719 45.4041 386.186 45.2939 385.786 45.0735C385.386 44.8486 385.078 44.5945 384.862 44.3111C384.646 44.0232 384.479 43.7848 384.362 43.5959H384.174V45.1882H382.635ZM384.201 40.0064C384.201 40.7891 384.315 41.4795 384.545 42.0778C384.774 42.6715 385.109 43.1371 385.55 43.4744C385.991 43.8073 386.531 43.9737 387.169 43.9737C387.835 43.9737 388.391 43.7983 388.836 43.4474C389.286 43.0921 389.623 42.6153 389.848 42.017C390.077 41.4143 390.192 40.7441 390.192 40.0064C390.192 39.2777 390.08 38.621 389.855 38.0362C389.634 37.447 389.299 36.9814 388.849 36.6396C388.404 36.2932 387.844 36.12 387.169 36.12C386.522 36.12 385.977 36.2842 385.536 36.6126C385.096 36.9364 384.763 37.3907 384.538 37.9755C384.313 38.5557 384.201 39.2327 384.201 40.0064ZM401.561 37.1456L400.131 37.5504C400.041 37.312 399.908 37.0804 399.733 36.8555C399.562 36.6261 399.328 36.4371 399.031 36.2887C398.734 36.1403 398.354 36.066 397.891 36.066C397.256 36.066 396.728 36.2122 396.305 36.5046C395.887 36.7925 395.677 37.1591 395.677 37.6044C395.677 38.0002 395.821 38.3128 396.109 38.5423C396.397 38.7717 396.847 38.9628 397.459 39.1158L398.997 39.4936C399.924 39.7185 400.614 40.0626 401.068 40.5259C401.523 40.9847 401.75 41.5762 401.75 42.3004C401.75 42.8942 401.579 43.4249 401.237 43.8927C400.9 44.3606 400.427 44.7294 399.82 44.9993C399.213 45.2692 398.507 45.4041 397.702 45.4041C396.645 45.4041 395.77 45.1747 395.077 44.7159C394.384 44.2571 393.946 43.5869 393.761 42.7052L395.273 42.3274C395.417 42.8852 395.689 43.3035 396.089 43.5824C396.494 43.8613 397.022 44.0007 397.675 44.0007C398.417 44.0007 399.006 43.8433 399.442 43.5284C399.883 43.209 400.104 42.8267 400.104 42.3814C400.104 42.0215 399.978 41.7202 399.726 41.4773C399.474 41.2299 399.087 41.0454 398.565 40.924L396.838 40.5192C395.889 40.2943 395.192 39.9457 394.746 39.4734C394.306 38.9966 394.085 38.4006 394.085 37.6854C394.085 37.1006 394.249 36.5833 394.578 36.1335C394.911 35.6837 395.363 35.3306 395.934 35.0742C396.51 34.8178 397.162 34.6896 397.891 34.6896C398.916 34.6896 399.721 34.9145 400.306 35.3643C400.895 35.8141 401.314 36.4079 401.561 37.1456ZM404.147 45.1882V34.8246H405.739V45.1882H404.147ZM404.956 33.0973C404.646 33.0973 404.378 32.9916 404.154 32.7802C403.933 32.5688 403.823 32.3146 403.823 32.0177C403.823 31.7209 403.933 31.4667 404.154 31.2553C404.378 31.0439 404.646 30.9382 404.956 30.9382C405.267 30.9382 405.532 31.0439 405.753 31.2553C405.978 31.4667 406.09 31.7209 406.09 32.0177C406.09 32.3146 405.978 32.5688 405.753 32.7802C405.532 32.9916 405.267 33.0973 404.956 33.0973ZM413.163 34.8246V36.174H407.792V34.8246H413.163ZM409.357 32.3416H410.95V42.2195C410.95 42.6693 411.015 43.0066 411.145 43.2315C411.28 43.4519 411.451 43.6004 411.658 43.6768C411.87 43.7488 412.092 43.7848 412.326 43.7848C412.502 43.7848 412.645 43.7758 412.758 43.7578C412.87 43.7353 412.96 43.7173 413.028 43.7038L413.352 45.1342C413.244 45.1747 413.093 45.2152 412.9 45.2557C412.706 45.3007 412.461 45.3231 412.164 45.3231C411.714 45.3231 411.274 45.2264 410.842 45.033C410.414 44.8396 410.059 44.545 409.776 44.1491C409.497 43.7533 409.357 43.254 409.357 42.6513V32.3416ZM419.792 45.4041C418.793 45.4041 417.932 45.1837 417.208 44.7429C416.488 44.2976 415.932 43.6768 415.541 42.8807C415.154 42.08 414.961 41.1489 414.961 40.0873C414.961 39.0258 415.154 38.0902 415.541 37.2805C415.932 36.4664 416.477 35.8321 417.174 35.3778C417.876 34.919 418.694 34.6896 419.63 34.6896C420.17 34.6896 420.703 34.7796 421.229 34.9595C421.755 35.1394 422.234 35.4318 422.666 35.8366C423.098 36.237 423.442 36.7677 423.698 37.429C423.955 38.0902 424.083 38.9043 424.083 39.8714V40.5462H416.094V39.1697H422.464C422.464 38.585 422.347 38.0632 422.113 37.6044C421.883 37.1456 421.555 36.7835 421.128 36.5181C420.705 36.2527 420.206 36.12 419.63 36.12C418.996 36.12 418.447 36.2775 417.984 36.5923C417.525 36.9027 417.172 37.3075 416.924 37.8068C416.677 38.3061 416.553 38.8414 416.553 39.4126V40.3302C416.553 41.1129 416.688 41.7764 416.958 42.3207C417.232 42.8604 417.612 43.272 418.098 43.5554C418.584 43.8343 419.149 43.9737 419.792 43.9737C420.21 43.9737 420.588 43.9152 420.925 43.7983C421.267 43.6768 421.562 43.4969 421.809 43.2585C422.057 43.0156 422.248 42.7142 422.383 42.3544L423.921 42.7862C423.759 43.308 423.487 43.7668 423.105 44.1626C422.722 44.554 422.25 44.8598 421.688 45.0802C421.126 45.2962 420.494 45.4041 419.792 45.4041ZM427.666 45.2962C427.333 45.2962 427.047 45.177 426.809 44.9386C426.57 44.7002 426.451 44.4145 426.451 44.0817C426.451 43.7488 426.57 43.4632 426.809 43.2248C427.047 42.9864 427.333 42.8672 427.666 42.8672C427.999 42.8672 428.284 42.9864 428.523 43.2248C428.761 43.4632 428.88 43.7488 428.88 44.0817C428.88 44.3021 428.824 44.5045 428.712 44.6889C428.604 44.8733 428.457 45.0218 428.273 45.1342C428.093 45.2422 427.891 45.2962 427.666 45.2962ZM435.948 45.4041C434.976 45.4041 434.14 45.1747 433.438 44.7159C432.736 44.2571 432.196 43.6251 431.819 42.8199C431.441 42.0148 431.252 41.0949 431.252 40.0604C431.252 39.0078 431.445 38.0789 431.832 37.2738C432.223 36.4641 432.768 35.8321 433.465 35.3778C434.167 34.919 434.985 34.6896 435.921 34.6896C436.65 34.6896 437.306 34.8246 437.891 35.0945C438.476 35.3643 438.955 35.7422 439.328 36.228C439.702 36.7138 439.933 37.2805 440.023 37.9283H438.431C438.309 37.456 438.04 37.0376 437.621 36.6733C437.207 36.3044 436.65 36.12 435.948 36.12C435.327 36.12 434.783 36.282 434.315 36.6058C433.852 36.9252 433.49 37.3772 433.229 37.962C432.972 38.5422 432.844 39.2237 432.844 40.0064C432.844 40.807 432.97 41.5043 433.222 42.098C433.478 42.6918 433.838 43.1528 434.302 43.4812C434.769 43.8095 435.318 43.9737 435.948 43.9737C436.362 43.9737 436.737 43.9017 437.075 43.7578C437.412 43.6139 437.698 43.407 437.932 43.1371C438.165 42.8672 438.332 42.5433 438.431 42.1655H440.023C439.933 42.7772 439.711 43.3282 439.355 43.8185C439.004 44.3043 438.539 44.6912 437.959 44.979C437.383 45.2624 436.713 45.4041 435.948 45.4041ZM446.561 45.4041C445.626 45.4041 444.805 45.1815 444.098 44.7361C443.397 44.2908 442.848 43.6678 442.452 42.8672C442.061 42.0665 441.865 41.1309 441.865 40.0604C441.865 38.9808 442.061 38.0385 442.452 37.2333C442.848 36.4281 443.397 35.8029 444.098 35.3576C444.805 34.9123 445.626 34.6896 446.561 34.6896C447.497 34.6896 448.315 34.9123 449.017 35.3576C449.723 35.8029 450.272 36.4281 450.663 37.2333C451.059 38.0385 451.257 38.9808 451.257 40.0604C451.257 41.1309 451.059 42.0665 450.663 42.8672C450.272 43.6678 449.723 44.2908 449.017 44.7361C448.315 45.1815 447.497 45.4041 446.561 45.4041ZM446.561 43.9737C447.272 43.9737 447.857 43.7915 448.315 43.4272C448.774 43.0628 449.114 42.5838 449.334 41.99C449.555 41.3963 449.665 40.7531 449.665 40.0604C449.665 39.3677 449.555 38.7222 449.334 38.1239C449.114 37.5257 448.774 37.0421 448.315 36.6733C447.857 36.3044 447.272 36.12 446.561 36.12C445.85 36.12 445.266 36.3044 444.807 36.6733C444.348 37.0421 444.008 37.5257 443.788 38.1239C443.568 38.7222 443.457 39.3677 443.457 40.0604C443.457 40.7531 443.568 41.3963 443.788 41.99C444.008 42.5838 444.348 43.0628 444.807 43.4272C445.266 43.7915 445.85 43.9737 446.561 43.9737ZM453.688 45.1882V34.8246H455.226V36.4439H455.361C455.577 35.8906 455.926 35.461 456.407 35.1552C456.888 34.8448 457.466 34.6896 458.141 34.6896C458.825 34.6896 459.394 34.8448 459.848 35.1552C460.307 35.461 460.664 35.8906 460.921 36.4439H461.029C461.294 35.9086 461.692 35.4835 462.223 35.1687C462.754 34.8493 463.39 34.6896 464.132 34.6896C465.059 34.6896 465.817 34.9798 466.406 35.56C466.996 36.1358 467.29 37.0331 467.29 38.2521V45.1882H465.698V38.2521C465.698 37.4874 465.489 36.9409 465.07 36.6126C464.652 36.2842 464.159 36.12 463.593 36.12C462.864 36.12 462.299 36.3404 461.899 36.7812C461.499 37.2176 461.299 37.7708 461.299 38.441V45.1882H459.679V38.0902C459.679 37.5009 459.488 37.0264 459.106 36.6665C458.723 36.3022 458.231 36.12 457.628 36.12C457.214 36.12 456.828 36.2302 456.468 36.4506C456.112 36.671 455.824 36.9769 455.604 37.3682C455.388 37.7551 455.28 38.2026 455.28 38.7109V45.1882H453.688Z" fill="black"/>
<rect x="26.5908" y="108.753" width="345.682" height="38.3107" rx="15.5" fill="#908BFF"/>
<rect x="26.5908" y="160.658" width="195.341" height="38.3107" rx="15.5" fill="#908BFF"/>
<rect x="110.454" y="289.184" width="128.864" height="38.3107" rx="15.5" fill="#908BFF"/>
<rect x="110.454" y="333.673" width="128.864" height="38.3107" rx="15.5" fill="#908BFF"/>
<rect x="26.5908" y="215.034" width="320.114" height="16.0658" rx="8.03288" fill="#908BFF"/>
<rect x="26.5908" y="237.279" width="296.591" height="16.0658" rx="8.03288" fill="#908BFF"/>
<rect x="26.5908" y="259.524" width="310.909" height="16.0658" rx="8.03288" fill="#908BFF"/>
</svg>
