<svg width="792" height="500" viewBox="0 0 792 500" fill="none" xmlns="http://www.w3.org/2000/svg">
<rect x="23" width="769" height="500" rx="30" fill="#B7B3FF"/>
<rect x="0.5" y="8.43649" width="778" height="483.127" rx="29.5" fill="#CECBFF" stroke="#908BFF"/>
<path opacity="0.6" d="M0 366.213H779V462.064C779 478.632 765.569 492.064 749 492.064H30C13.4315 492.064 0 478.632 0 462.064V366.213Z" fill="#908BFF"/>
<path d="M748 7.43649C764.845 7.43649 778.5 21.0918 778.5 37.9365V69.6611H0.5V37.9365L0.509766 37.1494C0.927253 20.6685 14.4185 7.43649 31 7.43649H748Z" fill="#CECBFF" stroke="#908BFF"/>
<ellipse cx="26" cy="39.1156" rx="7" ry="7.36961" fill="#F0635E"/>
<ellipse cx="44.5" cy="39.1156" rx="6.5" ry="7.36961" fill="#FFB931"/>
<ellipse cx="62.5" cy="39.1156" rx="6.5" ry="7.36961" fill="#28C941"/>
<path opacity="0.7" d="M310.483 46.8297C310.213 46.8297 309.972 46.8072 309.761 46.7622C309.55 46.7217 309.403 46.6812 309.322 46.6407L309.727 45.2373C310.114 45.3363 310.456 45.3723 310.753 45.3453C311.05 45.3183 311.313 45.1856 311.542 44.9472C311.776 44.7133 311.99 44.3332 312.183 43.8069L312.48 42.9973L308.648 32.5797H310.375L313.236 40.8382H313.344L316.205 32.5797H317.932L313.533 44.4547C313.335 44.9899 313.09 45.433 312.797 45.7839C312.505 46.1392 312.165 46.4023 311.778 46.5733C311.396 46.7442 310.964 46.8297 310.483 46.8297ZM323.873 43.1592C322.937 43.1592 322.116 42.9366 321.41 42.4912C320.708 42.0459 320.16 41.4229 319.764 40.6223C319.372 39.8216 319.177 38.886 319.177 37.8155C319.177 36.7359 319.372 35.7936 319.764 34.9884C320.16 34.1832 320.708 33.558 321.41 33.1127C322.116 32.6674 322.937 32.4447 323.873 32.4447C324.808 32.4447 325.627 32.6674 326.329 33.1127C327.035 33.558 327.584 34.1832 327.975 34.9884C328.371 35.7936 328.569 36.7359 328.569 37.8155C328.569 38.886 328.371 39.8216 327.975 40.6223C327.584 41.4229 327.035 42.0459 326.329 42.4912C325.627 42.9366 324.808 43.1592 323.873 43.1592ZM323.873 41.7288C324.583 41.7288 325.168 41.5466 325.627 41.1823C326.086 40.8179 326.425 40.3389 326.646 39.7451C326.866 39.1514 326.976 38.5082 326.976 37.8155C326.976 37.1227 326.866 36.4773 326.646 35.879C326.425 35.2808 326.086 34.7972 325.627 34.4284C325.168 34.0595 324.583 33.8751 323.873 33.8751C323.162 33.8751 322.577 34.0595 322.118 34.4284C321.66 34.7972 321.32 35.2808 321.1 35.879C320.879 36.4773 320.769 37.1227 320.769 37.8155C320.769 38.5082 320.879 39.1514 321.1 39.7451C321.32 40.3389 321.66 40.8179 322.118 41.1823C322.577 41.5466 323.162 41.7288 323.873 41.7288ZM337.531 38.7061V32.5797H339.123V42.9433H337.531V41.189H337.423C337.18 41.7153 336.802 42.1629 336.289 42.5317C335.776 42.8961 335.129 43.0782 334.346 43.0782C333.698 43.0782 333.122 42.9366 332.619 42.6532C332.115 42.3653 331.719 41.9335 331.431 41.3577C331.143 40.7775 330.999 40.0465 330.999 39.1649V32.5797H332.592V39.0569C332.592 39.8126 332.803 40.4154 333.226 40.8652C333.653 41.315 334.198 41.5399 334.859 41.5399C335.255 41.5399 335.657 41.4387 336.066 41.2363C336.48 41.0339 336.827 40.7235 337.106 40.3052C337.389 39.8868 337.531 39.3538 337.531 38.7061ZM342.039 42.9433V32.5797H343.578V34.145H343.686C343.875 33.6322 344.217 33.2161 344.711 32.8968C345.206 32.5774 345.764 32.4177 346.385 32.4177C346.502 32.4177 346.648 32.42 346.823 32.4245C346.999 32.429 347.131 32.4357 347.221 32.4447V34.064C347.167 34.0505 347.044 34.0303 346.85 34.0033C346.661 33.9718 346.461 33.9561 346.25 33.9561C345.746 33.9561 345.296 34.0618 344.9 34.2732C344.509 34.4801 344.199 34.768 343.969 35.1368C343.744 35.5012 343.632 35.9173 343.632 36.3851V42.9433H342.039ZM351.624 42.9433L348.466 32.5797H350.139L352.379 40.5143H352.487L354.7 32.5797H356.401L358.587 40.4873H358.695L360.935 32.5797H362.608L359.45 42.9433H357.885L355.618 34.9817H355.456L353.189 42.9433H351.624ZM368.706 43.1592C367.707 43.1592 366.846 42.9388 366.122 42.498C365.402 42.0527 364.847 41.4319 364.455 40.6358C364.068 39.8351 363.875 38.904 363.875 37.8424C363.875 36.7809 364.068 35.8453 364.455 35.0356C364.847 34.2215 365.391 33.5872 366.088 33.1329C366.79 32.6741 367.608 32.4447 368.544 32.4447C369.084 32.4447 369.617 32.5347 370.143 32.7146C370.669 32.8945 371.148 33.1869 371.58 33.5917C372.012 33.9921 372.356 34.5228 372.612 35.1841C372.869 35.8453 372.997 36.6594 372.997 37.6265V38.3013H365.008V36.9248H371.378C371.378 36.3401 371.261 35.8183 371.027 35.3595C370.797 34.9007 370.469 34.5386 370.042 34.2732C369.619 34.0078 369.12 33.8751 368.544 33.8751C367.91 33.8751 367.361 34.0325 366.898 34.3474C366.439 34.6578 366.086 35.0626 365.838 35.5619C365.591 36.0612 365.467 36.5965 365.467 37.1677V38.0853C365.467 38.868 365.602 39.5315 365.872 40.0758C366.146 40.6155 366.527 41.0271 367.012 41.3105C367.498 41.5894 368.063 41.7288 368.706 41.7288C369.124 41.7288 369.502 41.6703 369.839 41.5534C370.181 41.4319 370.476 41.252 370.723 41.0136C370.971 40.7707 371.162 40.4693 371.297 40.1095L372.835 40.5413C372.673 41.0631 372.401 41.5219 372.019 41.9177C371.636 42.3091 371.164 42.6149 370.602 42.8353C370.04 43.0513 369.408 43.1592 368.706 43.1592ZM375.635 42.9433V29.1251H377.228V34.226H377.362C377.479 34.046 377.641 33.8166 377.848 33.5378C378.06 33.2544 378.361 33.0025 378.752 32.7821C379.148 32.5572 379.684 32.4447 380.358 32.4447C381.231 32.4447 382 32.6629 382.666 33.0992C383.331 33.5355 383.851 34.154 384.224 34.9547C384.598 35.7553 384.784 36.6999 384.784 37.7885C384.784 38.886 384.598 39.8374 384.224 40.6425C383.851 41.4432 383.334 42.0639 382.672 42.5047C382.011 42.941 381.249 43.1592 380.385 43.1592C379.719 43.1592 379.186 43.049 378.786 42.8286C378.386 42.6037 378.078 42.3495 377.862 42.0662C377.646 41.7783 377.479 41.5399 377.362 41.351H377.174V42.9433H375.635ZM377.201 37.7615C377.201 38.5442 377.315 39.2346 377.545 39.8329C377.774 40.4266 378.109 40.8922 378.55 41.2295C378.991 41.5624 379.531 41.7288 380.169 41.7288C380.835 41.7288 381.391 41.5534 381.836 41.2025C382.286 40.8472 382.623 40.3704 382.848 39.7721C383.077 39.1694 383.192 38.4992 383.192 37.7615C383.192 37.0328 383.08 36.3761 382.855 35.7913C382.634 35.2021 382.299 34.7365 381.849 34.3946C381.404 34.0483 380.844 33.8751 380.169 33.8751C379.522 33.8751 378.977 34.0393 378.536 34.3677C378.096 34.6915 377.763 35.1458 377.538 35.7306C377.313 36.3108 377.201 36.9878 377.201 37.7615ZM394.561 34.9007L393.131 35.3055C393.041 35.0671 392.908 34.8355 392.733 34.6106C392.562 34.3812 392.328 34.1922 392.031 34.0438C391.734 33.8954 391.354 33.8211 390.891 33.8211C390.256 33.8211 389.728 33.9673 389.305 34.2597C388.887 34.5476 388.677 34.9142 388.677 35.3595C388.677 35.7553 388.821 36.0679 389.109 36.2973C389.397 36.5267 389.847 36.7179 390.459 36.8709L391.997 37.2487C392.924 37.4736 393.614 37.8177 394.068 38.281C394.523 38.7398 394.75 39.3313 394.75 40.0555C394.75 40.6493 394.579 41.18 394.237 41.6478C393.9 42.1156 393.427 42.4845 392.82 42.7544C392.213 43.0243 391.507 43.1592 390.702 43.1592C389.645 43.1592 388.77 42.9298 388.077 42.471C387.384 42.0122 386.946 41.342 386.761 40.4603L388.273 40.0825C388.417 40.6403 388.689 41.0586 389.089 41.3375C389.494 41.6164 390.022 41.7558 390.675 41.7558C391.417 41.7558 392.006 41.5984 392.442 41.2835C392.883 40.9641 393.104 40.5818 393.104 40.1365C393.104 39.7766 392.978 39.4753 392.726 39.2324C392.474 38.985 392.087 38.8005 391.565 38.6791L389.838 38.2743C388.889 38.0494 388.192 37.7008 387.746 37.2285C387.306 36.7517 387.085 36.1557 387.085 35.4405C387.085 34.8557 387.249 34.3384 387.578 33.8886C387.911 33.4388 388.363 33.0857 388.934 32.8293C389.51 32.5729 390.162 32.4447 390.891 32.4447C391.916 32.4447 392.721 32.6696 393.306 33.1194C393.895 33.5692 394.314 34.163 394.561 34.9007ZM397.147 42.9433V32.5797H398.739V42.9433H397.147ZM397.956 30.8524C397.646 30.8524 397.378 30.7467 397.154 30.5353C396.933 30.3239 396.823 30.0697 396.823 29.7728C396.823 29.476 396.933 29.2218 397.154 29.0104C397.378 28.799 397.646 28.6933 397.956 28.6933C398.267 28.6933 398.532 28.799 398.753 29.0104C398.978 29.2218 399.09 29.476 399.09 29.7728C399.09 30.0697 398.978 30.3239 398.753 30.5353C398.532 30.7467 398.267 30.8524 397.956 30.8524ZM406.163 32.5797V33.9291H400.792V32.5797H406.163ZM402.357 30.0967H403.95V39.9745C403.95 40.4244 404.015 40.7617 404.145 40.9866C404.28 41.207 404.451 41.3555 404.658 41.4319C404.87 41.5039 405.092 41.5399 405.326 41.5399C405.502 41.5399 405.645 41.5309 405.758 41.5129C405.87 41.4904 405.96 41.4724 406.028 41.4589L406.352 42.8893C406.244 42.9298 406.093 42.9703 405.9 43.0108C405.706 43.0558 405.461 43.0782 405.164 43.0782C404.714 43.0782 404.274 42.9815 403.842 42.7881C403.414 42.5947 403.059 42.3001 402.776 41.9042C402.497 41.5084 402.357 41.0091 402.357 40.4064V30.0967ZM412.792 43.1592C411.793 43.1592 410.932 42.9388 410.208 42.498C409.488 42.0527 408.932 41.4319 408.541 40.6358C408.154 39.8351 407.961 38.904 407.961 37.8424C407.961 36.7809 408.154 35.8453 408.541 35.0356C408.932 34.2215 409.477 33.5872 410.174 33.1329C410.876 32.6741 411.694 32.4447 412.63 32.4447C413.17 32.4447 413.703 32.5347 414.229 32.7146C414.755 32.8945 415.234 33.1869 415.666 33.5917C416.098 33.9921 416.442 34.5228 416.698 35.1841C416.955 35.8453 417.083 36.6594 417.083 37.6265V38.3013H409.094V36.9248H415.464C415.464 36.3401 415.347 35.8183 415.113 35.3595C414.883 34.9007 414.555 34.5386 414.128 34.2732C413.705 34.0078 413.206 33.8751 412.63 33.8751C411.996 33.8751 411.447 34.0325 410.984 34.3474C410.525 34.6578 410.172 35.0626 409.924 35.5619C409.677 36.0612 409.553 36.5965 409.553 37.1677V38.0853C409.553 38.868 409.688 39.5315 409.958 40.0758C410.232 40.6155 410.612 41.0271 411.098 41.3105C411.584 41.5894 412.149 41.7288 412.792 41.7288C413.21 41.7288 413.588 41.6703 413.925 41.5534C414.267 41.4319 414.562 41.252 414.809 41.0136C415.057 40.7707 415.248 40.4693 415.383 40.1095L416.921 40.5413C416.759 41.0631 416.487 41.5219 416.105 41.9177C415.722 42.3091 415.25 42.6149 414.688 42.8353C414.126 43.0513 413.494 43.1592 412.792 43.1592ZM420.666 43.0513C420.333 43.0513 420.047 42.9321 419.809 42.6937C419.57 42.4553 419.451 42.1696 419.451 41.8368C419.451 41.5039 419.57 41.2183 419.809 40.9799C420.047 40.7415 420.333 40.6223 420.666 40.6223C420.999 40.6223 421.284 40.7415 421.523 40.9799C421.761 41.2183 421.88 41.5039 421.88 41.8368C421.88 42.0572 421.824 42.2596 421.712 42.444C421.604 42.6284 421.457 42.7769 421.273 42.8893C421.093 42.9973 420.891 43.0513 420.666 43.0513ZM428.948 43.1592C427.976 43.1592 427.14 42.9298 426.438 42.471C425.736 42.0122 425.196 41.3802 424.819 40.575C424.441 39.7699 424.252 38.85 424.252 37.8155C424.252 36.7629 424.445 35.834 424.832 35.0289C425.223 34.2192 425.768 33.5872 426.465 33.1329C427.167 32.6741 427.985 32.4447 428.921 32.4447C429.65 32.4447 430.306 32.5797 430.891 32.8495C431.476 33.1194 431.955 33.4973 432.328 33.9831C432.702 34.4689 432.933 35.0356 433.023 35.6834H431.431C431.309 35.2111 431.04 34.7927 430.621 34.4284C430.207 34.0595 429.65 33.8751 428.948 33.8751C428.327 33.8751 427.783 34.037 427.315 34.3609C426.852 34.6803 426.49 35.1323 426.229 35.7171C425.972 36.2973 425.844 36.9788 425.844 37.7615C425.844 38.5621 425.97 39.2593 426.222 39.8531C426.478 40.4468 426.838 40.9079 427.302 41.2363C427.769 41.5646 428.318 41.7288 428.948 41.7288C429.362 41.7288 429.737 41.6568 430.075 41.5129C430.412 41.369 430.698 41.162 430.932 40.8922C431.165 40.6223 431.332 40.2984 431.431 39.9206H433.023C432.933 40.5323 432.711 41.0833 432.355 41.5736C432.004 42.0594 431.539 42.4463 430.959 42.7341C430.383 43.0175 429.713 43.1592 428.948 43.1592ZM439.561 43.1592C438.626 43.1592 437.805 42.9366 437.098 42.4912C436.397 42.0459 435.848 41.4229 435.452 40.6223C435.061 39.8216 434.865 38.886 434.865 37.8155C434.865 36.7359 435.061 35.7936 435.452 34.9884C435.848 34.1832 436.397 33.558 437.098 33.1127C437.805 32.6674 438.626 32.4447 439.561 32.4447C440.497 32.4447 441.315 32.6674 442.017 33.1127C442.723 33.558 443.272 34.1832 443.663 34.9884C444.059 35.7936 444.257 36.7359 444.257 37.8155C444.257 38.886 444.059 39.8216 443.663 40.6223C443.272 41.4229 442.723 42.0459 442.017 42.4912C441.315 42.9366 440.497 43.1592 439.561 43.1592ZM439.561 41.7288C440.272 41.7288 440.857 41.5466 441.315 41.1823C441.774 40.8179 442.114 40.3389 442.334 39.7451C442.555 39.1514 442.665 38.5082 442.665 37.8155C442.665 37.1227 442.555 36.4773 442.334 35.879C442.114 35.2808 441.774 34.7972 441.315 34.4284C440.857 34.0595 440.272 33.8751 439.561 33.8751C438.85 33.8751 438.266 34.0595 437.807 34.4284C437.348 34.7972 437.008 35.2808 436.788 35.879C436.568 36.4773 436.457 37.1227 436.457 37.8155C436.457 38.5082 436.568 39.1514 436.788 39.7451C437.008 40.3389 437.348 40.8179 437.807 41.1823C438.266 41.5466 438.85 41.7288 439.561 41.7288ZM446.688 42.9433V32.5797H448.226V34.199H448.361C448.577 33.6457 448.926 33.2161 449.407 32.9103C449.888 32.5999 450.466 32.4447 451.141 32.4447C451.825 32.4447 452.394 32.5999 452.848 32.9103C453.307 33.2161 453.664 33.6457 453.921 34.199H454.029C454.294 33.6637 454.692 33.2386 455.223 32.9238C455.754 32.6044 456.39 32.4447 457.132 32.4447C458.059 32.4447 458.817 32.7348 459.406 33.3151C459.996 33.8909 460.29 34.7882 460.29 36.0072V42.9433H458.698V36.0072C458.698 35.2425 458.489 34.696 458.07 34.3677C457.652 34.0393 457.159 33.8751 456.593 33.8751C455.864 33.8751 455.299 34.0955 454.899 34.5363C454.499 34.9727 454.299 35.5259 454.299 36.1961V42.9433H452.679V35.8453C452.679 35.256 452.488 34.7815 452.106 34.4216C451.723 34.0573 451.231 33.8751 450.628 33.8751C450.214 33.8751 449.828 33.9853 449.468 34.2057C449.112 34.4261 448.824 34.732 448.604 35.1233C448.388 35.5102 448.28 35.9577 448.28 36.466V42.9433H446.688Z" fill="black"/>
<rect x="26" y="99.7732" width="338" height="35.1474" rx="15.5" fill="#908BFF"/>
<rect x="26" y="147.392" width="191" height="35.1474" rx="15.5" fill="#908BFF"/>
<rect x="108" y="265.306" width="126" height="35.1474" rx="15.5" fill="#908BFF"/>
<rect x="108" y="306.122" width="126" height="35.1474" rx="15.5" fill="#908BFF"/>
<rect x="26" y="197.279" width="313" height="14.7392" rx="7.36961" fill="#908BFF"/>
<rect x="26" y="217.687" width="290" height="14.7392" rx="7.36961" fill="#908BFF"/>
<rect x="26" y="238.095" width="304" height="14.7392" rx="7.36961" fill="#908BFF"/>
</svg>
