<svg width="42" height="42" viewBox="0 0 42 42" fill="none" xmlns="http://www.w3.org/2000/svg">
<rect width="42" height="42" rx="5" fill="url(#paint0_linear_847_181)"/>
<path fill-rule="evenodd" clip-rule="evenodd" d="M9 12.6667H8C7.448 12.6667 7 13.1147 7 13.6667V31.0001C7 31.5521 7.448 32.0001 8 32.0001H18.372C16.6893 31.1107 14.3293 30.6667 12.4587 30.6667H11.3333C10.0453 30.6667 9 29.6214 9 28.3334V12.6667ZM33.6667 12.6667V28.3334C33.6667 29.6214 32.6213 30.6667 31.3333 30.6667H30.208C28.3373 30.6667 25.9773 31.1107 24.2947 32.0001H34.6667C35.2187 32.0001 35.6667 31.5521 35.6667 31.0001V13.6667C35.6667 13.1147 35.2187 12.6667 34.6667 12.6667H33.6667Z" fill="white"/>
<path fill-rule="evenodd" clip-rule="evenodd" d="M20.334 31.58V11.944L20.238 11.888C18.0847 10.6587 14.9393 10 12.4593 10H11.334C10.782 10 10.334 10.448 10.334 11V28.3333C10.334 28.8853 10.782 29.3333 11.334 29.3333H12.4593C14.6207 29.3333 17.3687 29.8853 19.246 30.9587L20.334 31.58Z" fill="white"/>
<path fill-rule="evenodd" clip-rule="evenodd" d="M22.334 11.944V31.58L23.422 30.9587C25.2993 29.8853 28.0473 29.3333 30.2087 29.3333H31.334C31.886 29.3333 32.334 28.8853 32.334 28.3333V11C32.334 10.448 31.886 10 31.334 10H30.2087C27.7287 10 24.5833 10.6587 22.43 11.888L22.334 11.944Z" fill="white"/>
<defs>
<linearGradient id="paint0_linear_847_181" x1="21" y1="0" x2="21" y2="42" gradientUnits="userSpaceOnUse">
<stop stop-color="#5550FF"/>
<stop offset="1" stop-color="#3C4984"/>
</linearGradient>
</defs>
</svg>
