<svg viewBox="0 0 32 32" xmlns="http://www.w3.org/2000/svg"><g id="Layer_11" fill="rgb(0,0,0)" data-name="Layer 11"><path d="m24 11.57h-.53v-3.1a7.47 7.47 0 1 0 -14.94 0v3.1h-.53a4 4 0 0 0 -4 4v11.43a4 4 0 0 0 4 4h16a4 4 0 0 0 4-4v-11.43a4 4 0 0 0 -4-4zm-13.47-3.1a5.47 5.47 0 1 1 10.94 0v3.1h-10.94zm15.47 18.53a2 2 0 0 1 -2 2h-16a2 2 0 0 1 -2-2v-11.43a2 2 0 0 1 2-2h16a2 2 0 0 1 2 2z"/><path d="m16 17.926a1.948 1.948 0 0 0 -1.354 3.348v2.371a1 1 0 0 0 1 1h.708a1 1 0 0 0 1-1v-2.371a1.948 1.948 0 0 0 -1.354-3.348z"/></g></svg>