<svg width="46" height="38" viewBox="0 0 46 38" fill="none" xmlns="http://www.w3.org/2000/svg">
<path d="M29.4989 18.5983C30.7388 18.5983 31.7439 17.5924 31.7439 16.3516C31.7439 15.1108 30.7388 14.105 29.4989 14.105C28.259 14.105 27.2539 15.1108 27.2539 16.3516C27.2539 17.5924 28.259 18.5983 29.4989 18.5983Z" fill="url(#paint0_linear_1014_249)"/>
<path d="M22.4003 14.105C23.6405 14.105 24.6453 15.1114 24.6453 16.3516C24.6453 17.5928 23.6395 18.5983 22.4003 18.5983C21.16 18.5983 20.1553 17.5918 20.1553 16.3516C20.1543 15.1105 21.16 14.105 22.4003 14.105Z" fill="url(#paint1_linear_1014_249)"/>
<path d="M15.3016 18.5983C16.5415 18.5983 17.5466 17.5924 17.5466 16.3516C17.5466 15.1108 16.5415 14.105 15.3016 14.105C14.0618 14.105 13.0566 15.1108 13.0566 16.3516C13.0566 17.5924 14.0618 18.5983 15.3016 18.5983Z" fill="url(#paint2_linear_1014_249)"/>
<path d="M4.33398 4.30249C4.31778 4.35973 4.29967 4.36545 4.29395 4.30249H4.33398Z" fill="white"/>
<path d="M46 8.86361V23.6621C46 28.4521 42.1192 32.3358 37.3327 32.3358H34.062L29.0229 37.7784L23.9838 32.3358H8.67493C3.88847 32.3358 0.0085796 28.453 0.0085796 23.663L0 3.73777C0 2.47849 1.07054 1.39952 2.3775 1.67522C3.31649 1.87366 4.0448 2.92687 4.0448 3.88755V23.6535C4.0448 26.2178 6.12202 28.2956 8.68446 28.2956H25.7474L29.0229 31.834L32.2984 28.2956H37.3337C39.8904 28.2956 41.9628 26.2216 41.9628 23.663V8.86361C41.9628 6.30498 39.8904 4.23099 37.3327 4.23099L4.33365 4.30254C4.37655 4.15276 4.40324 3.64523 4.14871 3.06902C3.61106 1.5865 2.20686 0.899622 0.0085796 0L37.3337 0.1908C42.1201 0.1908 46 4.07358 46 8.86361Z" fill="url(#paint3_linear_1014_249)"/>
<defs>
<linearGradient id="paint0_linear_1014_249" x1="29.4989" y1="14.105" x2="29.4989" y2="18.5983" gradientUnits="userSpaceOnUse">
<stop stop-color="#5550FF"/>
<stop offset="1" stop-color="#3C4984"/>
</linearGradient>
<linearGradient id="paint1_linear_1014_249" x1="22.4003" y1="14.105" x2="22.4003" y2="18.5983" gradientUnits="userSpaceOnUse">
<stop stop-color="#5550FF"/>
<stop offset="1" stop-color="#3C4984"/>
</linearGradient>
<linearGradient id="paint2_linear_1014_249" x1="15.3016" y1="14.105" x2="15.3016" y2="18.5983" gradientUnits="userSpaceOnUse">
<stop stop-color="#5550FF"/>
<stop offset="1" stop-color="#3C4984"/>
</linearGradient>
<linearGradient id="paint3_linear_1014_249" x1="23" y1="0" x2="23" y2="37.7784" gradientUnits="userSpaceOnUse">
<stop stop-color="#5550FF"/>
<stop offset="1" stop-color="#3C4984"/>
</linearGradient>
</defs>
</svg>
