<svg width="54" height="54" viewBox="0 0 54 54" fill="none" xmlns="http://www.w3.org/2000/svg">
<path d="M44.9126 10.3981C44.8753 10.1255 44.6365 9.97466 44.4396 9.9582C44.2427 9.94175 40.3988 9.88332 40.3988 9.88332C40.3988 9.88332 37.184 6.76113 36.8664 6.44335C36.5488 6.12557 35.9285 6.22197 35.6877 6.29285C35.6841 6.2939 35.0844 6.47963 34.0722 6.79298C33.9034 6.24433 33.6542 5.57049 33.2992 4.89338C32.1545 2.70976 30.4787 1.55393 28.4532 1.55097C28.4508 1.55097 28.4487 1.55097 28.4463 1.55097C28.3059 1.55097 28.166 1.56416 28.0259 1.57692C27.9664 1.5052 27.9062 1.43411 27.8428 1.3663C26.961 0.422456 25.8286 -0.0373874 24.4732 0.00237435C21.8567 0.0773626 19.2524 1.96662 17.1399 5.3218C15.6529 7.68324 14.5233 10.6498 14.202 12.9457C11.1985 13.8758 9.097 14.5267 9.05155 14.5409C7.53543 15.0167 7.48776 15.0644 7.28895 16.4927C7.13845 17.5741 3.17188 48.2505 3.17188 48.2505L36.4192 53.9998L50.8288 50.4182C50.8288 50.4182 44.9498 10.6707 44.9126 10.3981ZM16.0646 12.3688C16.9636 8.16523 20.4858 1.85894 24.5235 1.74282C25.1377 1.72995 25.6551 1.86474 26.0969 2.15552C25.3902 2.52244 24.7067 3.04979 24.0655 3.73744C22.4038 5.52008 21.1309 8.288 20.6233 10.9571C19.0391 11.4476 17.4899 11.9274 16.0646 12.3688ZM28.0874 8.64596C26.3457 9.18522 24.4442 9.77405 22.5367 10.3647C23.0737 8.31036 24.0902 6.265 25.3394 4.92502C25.8041 4.42658 26.4542 3.87034 27.2239 3.55277C27.9481 5.06171 28.1049 7.20083 28.0874 8.64596ZM29.8266 8.10744C29.8073 6.78264 29.6491 4.94 29.032 3.3471C31.017 3.72321 31.9944 5.96927 32.4069 7.30851C31.6419 7.54529 30.7705 7.81508 29.8266 8.10744Z" fill="#95BF47"/>
<path d="M44.4394 9.95799C44.2425 9.94154 40.3986 9.88311 40.3986 9.88311C40.3986 9.88311 37.1838 6.76092 36.8663 6.44314C36.7478 6.32459 36.5872 6.26395 36.4199 6.23779L36.4208 53.9993L50.8286 50.418C50.8286 50.418 44.9498 10.6705 44.9125 10.3979C44.8751 10.1253 44.6364 9.97445 44.4394 9.95799Z" fill="#5E8E3E"/>
<path d="M28.4344 17.3672L26.7608 23.6279C26.7608 23.6279 24.894 22.7778 22.6807 22.9176C19.4355 23.1225 19.401 25.1695 19.4334 25.6825C19.6102 28.4826 26.9763 29.0944 27.3904 35.6527C27.7162 40.8124 24.6536 44.3418 20.2407 44.6205C14.9452 44.9548 12.0293 41.8301 12.0293 41.8301L13.1514 37.0561C13.1514 37.0561 16.0858 39.2701 18.4348 39.1218C19.9692 39.0248 20.5174 37.7769 20.4617 36.8944C20.2311 33.2418 14.2329 33.4569 13.8539 27.4555C13.535 22.4043 16.8517 17.2873 24.1704 16.8252C26.9904 16.6472 28.4344 17.3672 28.4344 17.3672Z" fill="white"/>
</svg>
