<svg width="54" height="54" viewBox="0 0 54 54" fill="none" xmlns="http://www.w3.org/2000/svg">
<g clip-path="url(#clip0_917_397)">
<path d="M30.8943 16.8939C29.8243 17.4543 29.4258 18.4012 29.4258 21.0167C29.4258 21.0167 29.9676 20.4927 30.7711 20.2015C31.3571 19.9891 31.8574 19.6661 32.1469 19.4541C33.0511 18.7919 33.1908 17.9386 33.1909 16.5029C33.1909 16.5029 31.7165 16.4632 30.8943 16.8939Z" fill="black"/>
<path d="M24.5486 17.5066C23.6758 18.276 23.421 19.5017 23.421 19.5017L20.5319 30.6951L18.129 21.5342C17.895 20.5603 17.4729 19.3562 16.8056 18.5421C15.9554 17.5049 14.2269 17.4398 14.0428 17.4398C13.8587 17.4398 12.1303 17.5049 11.2801 18.5421C10.6127 19.3562 10.1906 20.5603 9.95667 21.5342L7.55367 30.695L4.66457 19.5016C4.66457 19.5016 4.40965 18.2759 3.537 17.5065C2.12182 16.259 0 16.5259 0 16.5259L5.53247 37.4447C5.53247 37.4447 7.35782 37.576 8.27096 37.1106C9.47046 36.4991 10.0415 36.0273 10.7675 33.1812C11.4148 30.6437 13.2241 23.1902 13.3931 22.6597C13.4766 22.3974 13.5824 21.7707 14.0427 21.7707C14.5134 21.7707 14.6104 22.397 14.6924 22.6597C14.8584 23.1911 16.6707 30.6437 17.318 33.1812C18.0439 36.0274 18.6149 36.4991 19.8145 37.1106C20.7278 37.5761 22.553 37.4447 22.553 37.4447L28.0855 16.5259C28.0855 16.5259 25.9637 16.259 24.5486 17.5066Z" fill="black"/>
<path d="M33.1892 19.9414C33.1892 19.9414 32.8432 20.4764 32.0535 20.9179C31.5464 21.2014 31.0599 21.3935 30.5377 21.644C29.6628 22.0638 29.4258 22.5314 29.4258 23.2448V37.4448C29.4258 37.4448 30.8218 37.6212 31.735 37.1557C32.9105 36.5564 33.1806 35.9789 33.1909 33.3773L33.1892 19.9414Z" fill="black"/>
<path d="M46.9811 27.0361L54.0009 16.5953C54.0009 16.5953 51.0382 16.091 49.5711 17.4263C48.6324 18.2807 47.5828 19.8173 47.5828 19.8173L45 23.5406C44.8748 23.7341 44.7105 23.9448 44.4487 23.9448C44.1869 23.9448 44.0226 23.7341 43.8974 23.5406L41.3147 19.8173C41.3147 19.8173 40.2649 18.2808 39.3263 17.4263C37.8593 16.091 34.8965 16.5953 34.8965 16.5953L41.9163 27.0361L34.9149 37.4447C34.9149 37.4447 38.0003 37.8341 39.4673 36.4988C40.406 35.6444 41.3146 34.255 41.3146 34.255L43.8974 30.5318C44.0226 30.3382 44.1869 30.1275 44.4487 30.1275C44.7105 30.1275 44.8748 30.3382 45 30.5318L47.5828 34.255C47.5828 34.255 48.5447 35.6444 49.4833 36.4988C50.9503 37.8341 53.9821 37.4447 53.9821 37.4447L46.9811 27.0361Z" fill="black"/>
</g>
<defs>
<clipPath id="clip0_917_397">
<rect width="54" height="54" fill="white"/>
</clipPath>
</defs>
</svg>
