<svg width="54" height="54" viewBox="0 0 54 54" fill="none" xmlns="http://www.w3.org/2000/svg">
<g clip-path="url(#clip0_917_303)">
<path d="M16.1992 16.6655H13.2171L21.347 39.6468L25.8984 26.6406L22.3697 16.6655H19.2233V14.4757H33.1563V16.6655H29.8936L38.0234 39.6468L40.9457 31.2955C44.7792 20.596 37.8037 17.2631 37.8037 14.8752C37.8037 12.4873 39.7395 10.5517 42.1272 10.5517C42.2564 10.5517 42.3818 10.5587 42.5048 10.5701C38.4589 6.75084 33.0035 4.40869 27.0005 4.40869C19.1568 4.40869 12.2476 8.40688 8.19727 14.4757H16.1989V16.6655H16.1992Z" fill="#00769D"/>
<path d="M4.4082 26.9998C4.4082 35.649 9.26957 43.1617 16.4082 46.9579L6.21309 18.1387C5.05173 20.8595 4.4082 23.8544 4.4082 26.9998Z" fill="#00769D"/>
<path d="M46.6617 15.8677C46.9848 17.7704 46.887 19.9089 46.3911 22.0558H46.481L46.1394 23.0319C45.937 23.7367 45.6821 24.4576 45.3926 25.1661L37.6191 46.9435C44.7428 43.1427 49.5917 35.6381 49.5917 26.9999C49.5917 22.9521 48.5262 19.1536 46.6617 15.8677Z" fill="#00769D"/>
<path d="M20.0332 48.4944C22.2279 49.2053 24.569 49.591 27.0007 49.591C29.32 49.591 31.5574 49.2409 33.6638 48.5916L27.0555 29.9116L20.0332 48.4944Z" fill="#00769D"/>
<path d="M46.0918 7.90808C40.9922 2.80848 34.2118 0 26.9999 0C19.7879 0 13.0077 2.80848 7.90808 7.90808C2.80848 13.0077 0 19.7879 0 27C0 34.212 2.80848 40.9922 7.90808 46.0918C13.0077 51.1914 19.788 53.9999 27 53.9999C34.212 53.9999 40.9922 51.1914 46.0919 46.0918C51.1915 40.9922 54 34.2118 54 27C53.9999 19.7879 51.1914 13.0077 46.0918 7.90808ZM26.9999 52.0952C13.1623 52.0952 1.90464 40.8376 1.90464 27C1.90464 13.1624 13.1623 1.90464 26.9999 1.90464C40.8374 1.90464 52.0951 13.1624 52.0951 27C52.0951 40.8376 40.8376 52.0952 26.9999 52.0952Z" fill="#00769D"/>
</g>
<defs>
<clipPath id="clip0_917_303">
<rect width="54" height="54" fill="white"/>
</clipPath>
</defs>
</svg>
